<svg width="29" height="29" viewBox="0 0 29 29" fill="none" xmlns="http://www.w3.org/2000/svg">
<path d="M26.4688 18.9355L20.8906 16.5293C19.9062 16.1465 18.7031 16.4199 18.0469 17.2949L16.1875 19.4824C13.3438 17.8965 10.9375 15.4902 9.35156 12.6465L11.5938 10.8418C12.4141 10.1309 12.6875 8.92773 12.25 7.94336L9.89844 2.36523C9.40625 1.27148 8.20312 0.669922 7.05469 0.943359L1.91406 2.14648C0.765625 2.36523 0 3.34961 0 4.55273C0 17.9512 10.8828 28.834 24.2812 28.834C25.4844 28.834 26.4688 28.0684 26.7422 26.9199L27.8906 21.7793C28.1641 20.6309 27.5625 19.4277 26.4688 18.9355ZM24.9922 26.5371C24.9375 26.8652 24.6641 27.1387 24.2812 27.1387C11.8672 27.1387 1.75 16.9668 1.75 4.55273C1.75 4.16992 1.96875 3.89648 2.29688 3.8418L7.4375 2.63867C7.49219 2.63867 7.54688 2.58398 7.60156 2.58398C7.875 2.58398 8.14844 2.80273 8.3125 3.07617L10.6641 8.59961C10.7734 8.92773 10.7188 9.25586 10.4453 9.47461L7.71094 11.7168C7.38281 11.9902 7.27344 12.4277 7.49219 12.8105C9.29688 16.4746 12.3594 19.5371 16.0781 21.3418C16.4062 21.5605 16.8438 21.4512 17.1172 21.123L19.3594 18.3887C19.5781 18.1152 19.9062 18.0605 20.2344 18.1699L25.7578 20.5215C26.0859 20.6855 26.3047 21.0137 26.1953 21.3965L24.9922 26.5371Z" fill="url(#paint0_linear_120_6959)"/>
<defs>
<linearGradient id="paint0_linear_120_6959" x1="0" y1="14.334" x2="28" y2="14.334" gradientUnits="userSpaceOnUse">
<stop stop-color="#A3C4DB"/>
<stop offset="1" stop-color="#5AACD3"/>
</linearGradient>
</defs>
</svg>
