<svg width="27" height="30" viewBox="0 0 27 30" fill="none" xmlns="http://www.w3.org/2000/svg">
<mask id="mask0_120_6945" style="mask-type:alpha" maskUnits="userSpaceOnUse" x="0" y="0" width="27" height="30">
<path d="M10.9352 0.0195312H0.905273V29.0451H26.7058V26.2715V9.72696H16.5468L10.9352 0.0195312Z" fill="black"/>
</mask>
<g mask="url(#mask0_120_6945)">
<path d="M9.48937 19.857C9.48937 19.857 11.2632 21.0277 17.145 20.0764C16.6935 22.8912 9.32553 28.1338 5.14779 22.9976C4.41678 21.776 4.05127 20.3002 4.05127 18.5702V7.62891C4.05127 7.62891 4.05256 17.6324 9.48937 19.857Z" fill="url(#paint0_linear_120_6945)" stroke="#262626" stroke-width="0.418361"/>
<path d="M22.8795 1.14844C17.7755 1.65413 17.6381 6.93484 17.6381 6.93484V17.8762C17.6381 18.8753 16.8731 23.9129 10.5088 25.0584C11.7128 25.6737 13.0815 25.9814 14.6149 25.9814C16.1483 25.9814 17.5431 25.6737 18.7991 25.0584C20.0436 24.4549 21.0814 23.4963 21.7817 22.3035C22.5127 21.0819 22.8782 19.6061 22.8782 17.8762V6.93484C22.8782 6.93484 22.8795 2.8345 22.8795 1.14844Z" fill="url(#paint1_linear_120_6945)" stroke="#262626" stroke-width="0.418361"/>
<path d="M4.05343 1.14844C9.15805 1.65413 9.29673 6.93484 9.29673 6.93484V17.8762C9.29673 18.1664 9.24126 19.0778 9.49024 19.8577C3.93346 18.4328 4.05343 6.93484 4.05343 6.93484V1.14844Z" fill="url(#paint2_linear_120_6945)" stroke="#262626" stroke-width="0.418361"/>
</g>
<g clip-path="url(#clip0_120_6945)">
<path d="M22.6394 6.74197H21.11V8.27129H22.6394V6.74197Z" fill="url(#paint3_linear_120_6945)"/>
<path d="M18.8305 4.48958H18.0442V5.27585H18.8305V4.48958Z" fill="url(#paint4_linear_120_6945)"/>
<path d="M20.6069 5.82285H19.5897V6.74844H20.6069V5.82285Z" fill="url(#paint5_linear_120_6945)"/>
<path d="M22.1601 4.25867H21.1429V5.18426H22.1601V4.25867Z" fill="url(#paint6_linear_120_6945)"/>
<path d="M22.0414 1.40969H21.2623V2.18886H22.0414V1.40969Z" fill="url(#paint7_linear_120_6945)"/>
<path d="M21.7144 3.20799H20.9145V3.90202H21.7144V3.20799Z" fill="url(#paint8_linear_120_6945)"/>
<path d="M19.3833 7.20961H18.5487V7.94234H19.3833V7.20961Z" fill="url(#paint9_linear_120_6945)"/>
<path d="M22.4865 8.62095H21.6518V9.35369H22.4865V8.62095Z" fill="url(#paint10_linear_120_6945)"/>
<path d="M18.5061 8.32672H17.8276V8.92271H18.5061V8.32672Z" fill="url(#paint11_linear_120_6945)"/>
<path d="M19.591 3.555H18.8305V4.22324H19.591V3.555Z" fill="url(#paint12_linear_120_6945)"/>
<path d="M20.4379 4.1258H19.7594V4.72179H20.4379V4.1258Z" fill="url(#paint13_linear_120_6945)"/>
<path d="M22.956 2.28556H22.2775V2.88155H22.956V2.28556Z" fill="url(#paint14_linear_120_6945)"/>
<path d="M22.9231 3.59113H22.2446V4.18712H22.9231V3.59113Z" fill="url(#paint15_linear_120_6945)"/>
<path d="M20.8236 2.24431H20.0509V2.92286H20.8236V2.24431Z" fill="url(#paint16_linear_120_6945)"/>
<path d="M19.62 2.5836H19.242V2.91578H19.62V2.5836Z" fill="url(#paint17_linear_120_6945)"/>
<path d="M22.9947 1.07812H22.5264V1.5464H22.9947V1.07812Z" fill="url(#paint18_linear_120_6945)"/>
<path d="M22.5833 5.73063H22.0685V6.18278H22.5833V5.73063Z" fill="url(#paint19_linear_120_6945)"/>
<path d="M20.7772 8.3771H19.5574V9.59682H20.7772V8.3771Z" fill="url(#paint20_linear_120_6945)"/>
<path d="M18.9512 5.67644H17.7314V6.89615H18.9512V5.67644Z" fill="url(#paint21_linear_120_6945)"/>
<path d="M20.7772 9.72904H19.5574V10.9488H20.7772V9.72904Z" fill="#252525"/>
</g>
<defs>
<linearGradient id="paint0_linear_120_6945" x1="4.05127" y1="16.3965" x2="17.145" y2="16.3965" gradientUnits="userSpaceOnUse">
<stop stop-color="#A3C4DB"/>
<stop offset="1" stop-color="#5AACD3"/>
</linearGradient>
<linearGradient id="paint1_linear_120_6945" x1="10.5088" y1="13.5649" x2="22.8795" y2="13.5649" gradientUnits="userSpaceOnUse">
<stop stop-color="#A3C4DB"/>
<stop offset="1" stop-color="#5AACD3"/>
</linearGradient>
<linearGradient id="paint2_linear_120_6945" x1="4.05322" y1="10.503" x2="9.49024" y2="10.503" gradientUnits="userSpaceOnUse">
<stop stop-color="#A3C4DB"/>
<stop offset="1" stop-color="#5AACD3"/>
</linearGradient>
<linearGradient id="paint3_linear_120_6945" x1="17.7314" y1="6.01344" x2="22.9947" y2="6.01344" gradientUnits="userSpaceOnUse">
<stop stop-color="#A3C4DB"/>
<stop offset="1" stop-color="#5AACD3"/>
</linearGradient>
<linearGradient id="paint4_linear_120_6945" x1="17.7314" y1="6.01344" x2="22.9947" y2="6.01344" gradientUnits="userSpaceOnUse">
<stop stop-color="#A3C4DB"/>
<stop offset="1" stop-color="#5AACD3"/>
</linearGradient>
<linearGradient id="paint5_linear_120_6945" x1="17.7314" y1="6.01344" x2="22.9947" y2="6.01344" gradientUnits="userSpaceOnUse">
<stop stop-color="#A3C4DB"/>
<stop offset="1" stop-color="#5AACD3"/>
</linearGradient>
<linearGradient id="paint6_linear_120_6945" x1="17.7314" y1="6.01344" x2="22.9947" y2="6.01344" gradientUnits="userSpaceOnUse">
<stop stop-color="#A3C4DB"/>
<stop offset="1" stop-color="#5AACD3"/>
</linearGradient>
<linearGradient id="paint7_linear_120_6945" x1="17.7314" y1="6.01344" x2="22.9947" y2="6.01344" gradientUnits="userSpaceOnUse">
<stop stop-color="#A3C4DB"/>
<stop offset="1" stop-color="#5AACD3"/>
</linearGradient>
<linearGradient id="paint8_linear_120_6945" x1="17.7314" y1="6.01344" x2="22.9947" y2="6.01344" gradientUnits="userSpaceOnUse">
<stop stop-color="#A3C4DB"/>
<stop offset="1" stop-color="#5AACD3"/>
</linearGradient>
<linearGradient id="paint9_linear_120_6945" x1="17.7314" y1="6.01344" x2="22.9947" y2="6.01344" gradientUnits="userSpaceOnUse">
<stop stop-color="#A3C4DB"/>
<stop offset="1" stop-color="#5AACD3"/>
</linearGradient>
<linearGradient id="paint10_linear_120_6945" x1="17.7314" y1="6.01344" x2="22.9947" y2="6.01344" gradientUnits="userSpaceOnUse">
<stop stop-color="#A3C4DB"/>
<stop offset="1" stop-color="#5AACD3"/>
</linearGradient>
<linearGradient id="paint11_linear_120_6945" x1="17.7314" y1="6.01344" x2="22.9947" y2="6.01344" gradientUnits="userSpaceOnUse">
<stop stop-color="#A3C4DB"/>
<stop offset="1" stop-color="#5AACD3"/>
</linearGradient>
<linearGradient id="paint12_linear_120_6945" x1="17.7314" y1="6.01344" x2="22.9947" y2="6.01344" gradientUnits="userSpaceOnUse">
<stop stop-color="#A3C4DB"/>
<stop offset="1" stop-color="#5AACD3"/>
</linearGradient>
<linearGradient id="paint13_linear_120_6945" x1="17.7314" y1="6.01344" x2="22.9947" y2="6.01344" gradientUnits="userSpaceOnUse">
<stop stop-color="#A3C4DB"/>
<stop offset="1" stop-color="#5AACD3"/>
</linearGradient>
<linearGradient id="paint14_linear_120_6945" x1="17.7314" y1="6.01344" x2="22.9947" y2="6.01344" gradientUnits="userSpaceOnUse">
<stop stop-color="#A3C4DB"/>
<stop offset="1" stop-color="#5AACD3"/>
</linearGradient>
<linearGradient id="paint15_linear_120_6945" x1="17.7314" y1="6.01344" x2="22.9947" y2="6.01344" gradientUnits="userSpaceOnUse">
<stop stop-color="#A3C4DB"/>
<stop offset="1" stop-color="#5AACD3"/>
</linearGradient>
<linearGradient id="paint16_linear_120_6945" x1="17.7314" y1="6.01344" x2="22.9947" y2="6.01344" gradientUnits="userSpaceOnUse">
<stop stop-color="#A3C4DB"/>
<stop offset="1" stop-color="#5AACD3"/>
</linearGradient>
<linearGradient id="paint17_linear_120_6945" x1="17.7314" y1="6.01344" x2="22.9947" y2="6.01344" gradientUnits="userSpaceOnUse">
<stop stop-color="#A3C4DB"/>
<stop offset="1" stop-color="#5AACD3"/>
</linearGradient>
<linearGradient id="paint18_linear_120_6945" x1="17.7314" y1="6.01344" x2="22.9947" y2="6.01344" gradientUnits="userSpaceOnUse">
<stop stop-color="#A3C4DB"/>
<stop offset="1" stop-color="#5AACD3"/>
</linearGradient>
<linearGradient id="paint19_linear_120_6945" x1="17.7314" y1="6.01344" x2="22.9947" y2="6.01344" gradientUnits="userSpaceOnUse">
<stop stop-color="#A3C4DB"/>
<stop offset="1" stop-color="#5AACD3"/>
</linearGradient>
<linearGradient id="paint20_linear_120_6945" x1="17.7314" y1="6.01344" x2="22.9947" y2="6.01344" gradientUnits="userSpaceOnUse">
<stop stop-color="#A3C4DB"/>
<stop offset="1" stop-color="#5AACD3"/>
</linearGradient>
<linearGradient id="paint21_linear_120_6945" x1="17.7314" y1="6.01344" x2="22.9947" y2="6.01344" gradientUnits="userSpaceOnUse">
<stop stop-color="#A3C4DB"/>
<stop offset="1" stop-color="#5AACD3"/>
</linearGradient>
<clipPath id="clip0_120_6945">
<rect width="23.121" height="25.2661" fill="white" transform="translate(1.97461 1.02344)"/>
</clipPath>
</defs>
</svg>
