<svg width="72" height="67" viewBox="0 0 72 67" fill="none" xmlns="http://www.w3.org/2000/svg">
<path d="M35.4888 63.4407C28.5358 63.4402 21.798 61.0291 16.4233 56.6181C11.0485 52.2072 7.36935 46.0692 6.01249 39.2499C4.65562 32.4305 5.70501 25.3517 8.98187 19.2193C12.2587 13.0869 17.5604 8.28026 23.9836 5.61823C30.4068 2.95621 37.5543 2.60346 44.2084 4.62011C50.8626 6.63675 56.6117 10.898 60.4764 16.678C64.3412 22.458 66.0825 29.3991 65.4036 36.3189C64.7248 43.2387 61.6679 49.7091 56.7536 54.6278C53.968 57.4301 50.6542 59.6519 47.0041 61.1647C43.3539 62.6774 39.44 63.451 35.4888 63.4407ZM35.4888 4.40157C31.678 4.39045 27.9028 5.13516 24.3817 6.59261C20.8606 8.05006 17.6635 10.1913 14.9753 12.8925V12.8925C10.235 17.6337 7.28507 23.8718 6.62799 30.544C5.97091 37.2161 7.64734 43.9098 11.3717 49.4846C15.0961 55.0595 20.6381 59.1707 27.0535 61.1179C33.469 63.0652 40.3611 62.728 46.5559 60.1639C52.7507 57.5998 57.8648 52.9673 61.0273 47.0555C64.1898 41.1438 65.2049 34.3185 63.8997 27.7423C62.5945 21.1661 59.0498 15.2458 53.8694 10.9898C48.6889 6.73389 42.1932 4.4056 35.4888 4.40157V4.40157Z" fill="#616161" fill-opacity="0.3"/>
<path d="M4.23008 27.8528L1.06342 27.3053C1.51266 24.7912 2.23247 22.3331 3.21029 19.9738C4.16042 17.6698 5.35522 15.4746 6.77412 13.4258L9.42552 15.2614C8.14242 17.1189 7.06278 19.1091 6.2052 21.1975C5.30709 23.3376 4.64481 25.5692 4.23008 27.8528Z" fill="#616161" fill-opacity="0.3"/>
<path d="M6.49019 51.8564L6.07157 51.2016L7.90714 50.1282L8.29357 50.7508L6.49019 51.8564ZM4.98739 49.2694L4.63313 48.5824L6.5546 47.627L6.88736 48.2819L4.98739 49.2694ZM3.74219 46.5643C3.63485 46.3282 3.53824 46.092 3.44163 45.8451L5.44896 45.0615C5.53483 45.287 5.62071 45.5124 5.71732 45.7378L3.74219 46.5643ZM2.66875 43.7519L2.44334 43.022L4.50433 42.4101C4.56873 42.6463 4.64389 42.8717 4.71903 43.1079L2.66875 43.7519ZM1.88513 40.8751L1.72412 40.113L3.871 39.6836L4.03201 40.4028L1.88513 40.8751Z" fill="#616161" fill-opacity="0.3"/>
<path d="M5.89248 30.4711L3.74561 30.2671C4.46364 22.9004 7.71492 16.0109 12.945 10.7734L14.4585 12.2977C9.58778 17.1828 6.56063 23.605 5.89248 30.4711Z" fill="#616161" fill-opacity="0.3"/>
<path d="M35.487 66.2101C31.164 66.2147 26.8828 65.3634 22.8904 63.7053C18.898 62.0472 15.2734 59.615 12.2256 56.5491L14.4798 54.3164C20.0501 59.8737 27.5972 62.9947 35.4655 62.9947C43.3339 62.9947 50.8811 59.8737 56.4513 54.3164L58.727 56.5921C55.6775 59.6467 52.0546 62.0688 48.0664 63.7194C44.0782 65.3699 39.8033 66.2163 35.487 66.2101Z" fill="#616161" fill-opacity="0.3"/>
<path d="M35.4885 60.2188C30.1792 60.222 24.9882 58.6501 20.5725 55.7022C16.1568 52.7543 12.7147 48.5629 10.6818 43.6582C8.64894 38.7535 8.11658 33.356 9.15213 28.1487C10.1877 22.9413 12.7446 18.1582 16.4993 14.4045C19.6198 11.2848 23.4613 8.98278 27.6837 7.70211C31.9062 6.42144 36.3793 6.20166 40.7069 7.06227C45.0346 7.92287 49.0832 9.83732 52.4944 12.636C55.9057 15.4348 58.5741 19.0314 60.2636 23.1075C61.9531 27.1837 62.6114 31.6135 62.1803 36.0048C61.7492 40.3961 60.242 44.6133 57.7921 48.2831C55.3422 51.9528 52.0252 54.9619 48.1349 57.0438C44.2445 59.1257 39.9009 60.2163 35.4885 60.2188ZM17.24 15.1344C13.646 18.7409 11.2012 23.3315 10.2144 28.3265C9.22762 33.3215 9.74302 38.4969 11.6956 43.1992C13.6481 47.9014 16.9502 51.9197 21.1849 54.7466C25.4195 57.5735 30.3969 59.0821 35.4885 59.0821C40.58 59.0821 45.5574 57.5735 49.7921 54.7466C54.0268 51.9197 57.3289 47.9014 59.2814 43.1992C61.2339 38.4969 61.7493 33.3215 60.7625 28.3265C59.7757 23.3315 57.331 18.7409 53.7369 15.1344C51.3515 12.7184 48.5101 10.8002 45.3776 9.4909C42.245 8.18165 38.8836 7.50746 35.4885 7.50746C32.0933 7.50746 28.732 8.18165 25.5994 9.4909C22.4668 10.8002 19.6254 12.7184 17.24 15.1344Z" fill="#616161" fill-opacity="0.3"/>
<path d="M54.0242 51.8803L51.7485 49.5939C56.0526 45.276 58.4694 39.4279 58.4694 33.3313C58.4694 27.2346 56.0526 21.3866 51.7485 17.0687L54.0242 14.793C58.932 19.7165 61.6878 26.3848 61.6878 33.3366C61.6878 40.2884 58.932 46.9567 54.0242 51.8803Z" fill="#616161" fill-opacity="0.3"/>
<path d="M36.0261 0H34.9526V3.78924H36.0261V0Z" fill="#616161" fill-opacity="0.3"/>
<path d="M36.0261 62.8789H34.9526V66.6681H36.0261V62.8789Z" fill="#616161" fill-opacity="0.3"/>
<path d="M14.5236 32.7891H0V33.8625H14.5236V32.7891Z" fill="#616161" fill-opacity="0.3"/>
<path d="M70.9602 32.7891H56.4365V33.8625H70.9602V32.7891Z" fill="#616161" fill-opacity="0.3"/>
<path d="M71.4987 29.7812H70.4253V36.8874H71.4987V29.7812Z" fill="#616161" fill-opacity="0.3"/>
<path d="M64.7399 21.0273C63.8557 18.9459 62.7547 16.9634 61.4552 15.1127C60.1268 13.2146 58.5932 11.4686 56.8823 9.90647L59.0292 7.52344C62.7653 10.932 65.7172 15.1109 67.6811 19.7714L64.7399 21.0273Z" fill="#616161" fill-opacity="0.3"/>
<path d="M34.9514 58.4637H34.5112V57.3903H34.9299L34.9514 58.4637ZM36.0248 58.4637V57.3903H36.4434L36.4971 58.4637H36.0248ZM33.3949 58.3886H32.9547L33.0621 57.3151H33.4808L33.3949 58.3886ZM37.5491 58.3886L37.4632 57.3151H37.8711L37.9892 58.3886H37.5491ZM31.8813 58.2169L31.4412 58.1524L31.6129 57.079L32.0209 57.1434L31.8813 58.2169ZM39.0734 58.2169L38.9231 57.1434L39.331 57.079L39.5135 58.1524L39.0734 58.2169ZM30.357 57.9485L29.9277 57.8626L30.1638 56.7892L30.5717 56.8751L30.357 57.9485ZM40.5869 57.9485L40.3722 56.8751L40.7801 56.7892L41.0163 57.8626L40.5869 57.9485ZM28.8649 57.5942L28.4463 57.4762L28.7469 56.4027L29.1548 56.5208L28.8649 57.5942ZM42.079 57.5942L41.7892 56.5208L42.1541 56.4242L42.4976 57.444L42.079 57.5942ZM27.4051 57.1541L26.9864 57.0039L27.3514 55.9948L27.7486 56.1344L27.4051 57.1541ZM43.5067 57.1541L43.1524 56.1451L43.5603 56.0056L43.9146 57.0146L43.5067 57.1541ZM25.9237 56.6282L25.5158 56.4564L25.9345 55.4688L26.3209 55.6299L25.9237 56.6282ZM44.9343 56.6282L44.5372 55.6406L44.9236 55.4796L45.3422 56.4672L44.9343 56.6282ZM24.539 56.0163L24.1418 55.8231L24.6249 54.8677L25.0006 55.0502L24.539 56.0163ZM46.362 56.0163L45.8897 55.0502L46.2654 54.8677L46.7484 55.8338L46.362 56.0163ZM23.1757 55.3186L22.7893 55.1039L23.3367 54.17L23.7017 54.3847L23.1757 55.3186ZM47.7145 55.3186L47.1993 54.3739L47.5535 54.17L48.101 55.0932L47.7145 55.3186ZM21.8554 54.5349L21.4904 54.2881L22.0915 53.3971L22.4458 53.6333L21.8554 54.5349ZM49.0349 54.5349L48.4552 53.6333L48.7987 53.4078L49.3998 54.2988L49.0349 54.5349ZM20.5887 53.6762L20.2452 53.4078L20.8893 52.5598L21.2328 52.8067L20.5887 53.6762ZM50.2908 53.6762L49.6575 52.8174L49.9902 52.5598L50.645 53.4186L50.2908 53.6762ZM19.4294 52.6994L19.0966 52.4203L19.8481 51.6259L20.1701 51.905L19.4294 52.6994ZM51.5467 52.6994L50.8597 51.8835L51.1818 51.6045L51.8795 52.4203L51.5467 52.6994ZM18.2701 51.6903L17.9481 51.3898L18.6995 50.6169L19 50.9067L18.2701 51.6903ZM52.6846 51.6903L51.9439 50.9067L52.2445 50.6169L52.9959 51.3898L52.6846 51.6903ZM17.1859 50.6169L16.8854 50.2949L17.6797 49.5757L17.9588 49.8762L17.1859 50.6169ZM53.7688 50.6169L52.9851 49.8762L53.275 49.5757L54.0693 50.2949L53.7688 50.6169ZM54.7885 49.4683L53.962 48.7813L54.2303 48.4593L55.0676 49.1355L54.7885 49.4683ZM16.1447 49.4683L15.8656 49.1355L16.7029 48.4593L16.9713 48.7813L16.1447 49.4683ZM15.1893 48.2661L14.9424 47.9118L15.8119 47.2892L16.0588 47.6327L15.1893 48.2661ZM55.7117 48.2661L54.8529 47.622L55.0891 47.2892L55.9693 47.9011L55.7117 48.2661ZM14.3199 47.0102L14.0944 46.6344L14.9961 46.0655L15.2215 46.4305L14.3199 47.0102ZM56.5812 47.0102L55.6795 46.4305L55.9049 46.0762L56.8173 46.6344L56.5812 47.0102ZM13.5362 45.7113L13.3216 45.3248L14.2662 44.8203L14.4701 45.1853L13.5362 45.7113ZM57.3755 45.7113L56.4416 45.1853L56.6456 44.8096L57.5902 45.3248L57.3755 45.7113ZM12.817 44.3588L12.6345 43.9616L13.6006 43.5107L13.7831 43.8972L12.817 44.3588ZM58.0947 44.3588L57.1286 43.8864L57.3004 43.5107L58.2772 43.9616L58.0947 44.3588ZM12.1944 42.974L12.0334 42.5661L13.0317 42.1797L13.182 42.5661L12.1944 42.974ZM58.7173 42.974L57.719 42.5661L57.88 42.1689L58.8783 42.5661L58.7173 42.974ZM11.6577 41.5463L11.5182 41.1277L12.5916 40.8057L12.7204 41.2028L11.6577 41.5463ZM59.254 41.5463C59.254 41.5463 58.2681 41.6091 58.245 41.1921C58.236 41.0293 58.3738 40.7949 58.3738 40.7949L59.3936 41.1277L59.254 41.5463ZM11.2605 40.0113L11.1425 39.5819L12.2159 39.3136L12.3232 39.7215L11.2605 40.0113ZM59.7585 40.0113L58.6851 39.7322L58.7924 39.3243L59.8659 39.5927L59.7585 40.0113ZM10.8956 38.5407L10.8097 38.1113L11.8831 37.9074L11.969 38.3153L10.8956 38.5407ZM60.1235 38.5407L59.0501 38.326L59.1252 37.9074L60.1986 38.1113L60.1235 38.5407ZM10.6272 37.0486L10.5628 36.6192L11.6363 36.4797L11.7007 36.8983L10.6272 37.0486ZM60.3919 37.0486L59.3184 36.8876L59.3721 36.469L60.4455 36.6085L60.3919 37.0486ZM10.4233 35.5243V35.095L11.4967 35.0198V35.4385L10.4233 35.5243ZM60.5422 35.5243L59.4687 35.4277V35.0091L60.5422 35.0842V35.5243ZM10.3374 34.0108V33.5707H11.4108V33.9893L10.3374 34.0108ZM60.628 34.0108H59.5546V33.5814H60.628V34.0108ZM11.4216 32.5402H10.3481V32.1001L11.4216 32.1645V32.5402ZM59.5439 32.5402V32.1215L60.6173 32.0571V32.4972L59.5439 32.5402ZM11.5182 31.091L10.4447 30.9837V30.5543L11.5182 30.6724V31.091ZM59.4473 31.091V30.6724L60.5207 30.5543V30.9944L59.4473 31.091ZM11.7114 29.6634L10.638 29.4916L10.7024 29.0622L11.7758 29.2447L11.7114 29.6634ZM59.2648 29.6634L59.1896 29.2447L60.2631 29.0622L60.3274 29.4916L59.2648 29.6634ZM11.9798 28.2357L10.9063 27.9995L11.0136 27.5809L12.0871 27.8278L11.9798 28.2357ZM58.9857 28.2357L58.889 27.8278L59.9625 27.5809L60.0698 28.0103L58.9857 28.2357ZM12.334 26.6792L11.2605 26.3786L11.3786 25.96L12.452 26.2713L12.334 26.6792ZM58.6099 26.6792L58.4919 26.282L59.5653 25.96L59.6834 26.3786L58.6099 26.6792ZM12.7741 25.2945L11.7651 24.9402L11.9153 24.5216L12.9244 24.908L12.7741 25.2945ZM58.1699 25.2945L58.0196 24.8973L59.0286 24.5216L59.1789 24.9295L58.1699 25.2945ZM13.3108 23.9419L12.3232 23.5233L12.495 23.1154L13.4826 23.5555L13.3108 23.9419ZM57.6331 23.9419L57.4614 23.5662L58.4489 23.1261L58.6207 23.5233L57.6331 23.9419ZM13.9227 22.6216L12.9673 22.1493L13.1605 21.7521L14.1159 22.2459L13.9227 22.6216ZM57.0213 22.6216L56.8281 22.2566L57.7834 21.7521L57.9766 22.1493L57.0213 22.6216ZM14.6204 21.3442L13.6865 20.8075L13.9119 20.4318L14.8351 20.9792L14.6204 21.3442ZM56.3235 21.3442L56.1088 20.99L57.032 20.4318L57.2467 20.8075L56.3235 21.3442ZM15.3933 20.1098L14.4809 19.4227L14.7278 19.0685L15.608 19.6697L15.3933 20.1098ZM55.5507 20.1098L55.3145 19.7663L56.1947 19.1544C56.2832 19.2717 56.3656 19.3936 56.4416 19.5194L55.5507 20.1098ZM16.2413 18.9182L15.3933 18.2742L15.6617 17.9199L16.4989 18.5855L16.2413 18.9182ZM54.7026 18.9182L54.445 18.5855L55.293 17.9199L55.5614 18.2634L54.7026 18.9182ZM53.7795 17.7696L53.5004 17.4584L54.3055 16.7391L54.5953 17.0719L53.7795 17.7696ZM17.1645 17.7696L16.3486 17.0719L16.6385 16.7391L17.4436 17.4584L17.1645 17.7696ZM52.7919 16.6962L52.5021 16.3956L53.2642 15.6443L53.5648 15.9555L52.7919 16.6962ZM18.152 16.6962L17.3792 15.9555L17.6904 15.6443L18.1198 15.9663L18.4526 16.3956L18.152 16.6962ZM51.7399 15.6765L51.4287 15.3866L52.1479 14.5923L52.4699 14.8821L51.7399 15.6765ZM19.2577 15.6228L18.5385 14.8284L18.8605 14.5386L19.569 15.3437L19.2577 15.6228ZM50.6343 14.7103L50.3015 14.442L50.9671 13.6047L51.3106 13.8731L50.6343 14.7103ZM20.374 14.7103L19.6978 13.8731L20.0413 13.6047L20.6961 14.4527L20.374 14.7103ZM49.4643 13.8623L49.1207 13.6262L49.7219 12.7352L50.0869 12.9929L49.4643 13.8623ZM21.5548 13.8623L20.9322 12.9929L21.2865 12.746L21.8983 13.6262L21.5548 13.8623ZM48.2513 13.0895L47.897 12.864L48.4445 11.9516L48.8202 12.177L48.2513 13.0895ZM22.7678 13.0895L22.2096 12.177L22.5746 11.9516L23.1328 12.864L22.7678 13.0895ZM46.9846 12.381L46.6089 12.177L47.1134 11.2324L47.4999 11.4364L46.9846 12.381ZM24.0345 12.381L23.53 11.4364L23.9164 11.2324L24.4102 12.1878L24.0345 12.381ZM45.675 11.7477L45.2886 11.5759L45.7287 10.5991L46.1259 10.7816L45.675 11.7477ZM25.3548 11.7477L24.904 10.7708L25.3011 10.5883L25.7305 11.5759L25.3548 11.7477ZM44.3225 11.1895L43.9253 11.0392L44.3118 10.0302L44.7197 10.1912L44.3225 11.1895ZM26.6966 11.1895L26.3102 10.1912L26.7181 10.0302L27.0938 11.0392L26.6966 11.1895ZM42.9378 10.7172L42.5406 10.5883L42.8626 9.56858L43.2705 9.69739L42.9378 10.7172ZM28.0814 10.7172L27.7593 9.64373L28.178 9.51489L28.4785 10.5883L28.0814 10.7172ZM41.5315 10.3307L41.1236 10.2234L41.3705 9.14992L41.7999 9.25727L41.5315 10.3307ZM29.4876 10.3307L29.2299 9.25727L29.6486 9.16067L29.8954 10.2341L29.4876 10.3307ZM40.0931 10.0302L39.6852 9.955L39.8677 8.88156L40.3078 8.95671L40.0931 10.0302ZM30.926 10.0302L30.722 8.95671L31.1514 8.88156L31.3339 9.955L30.926 10.0302ZM38.644 9.80474L38.2361 9.75105L38.3541 8.67761L38.7943 8.7313L38.644 9.80474ZM32.3751 9.80474L32.2356 8.7313L32.6757 8.67761L32.7937 9.75105L32.3751 9.80474ZM37.1841 9.66519H36.7655L36.8299 8.59175H37.27L37.1841 9.66519ZM33.835 9.66519L33.7598 8.59175H34.1999L34.2536 9.66519H33.835ZM35.7242 9.60078H35.3056V8.52734H35.7564L35.7242 9.60078Z" fill="#616161" fill-opacity="0.3"/>
</svg>
