<svg width="377" height="232" viewBox="0 0 377 232" fill="none" xmlns="http://www.w3.org/2000/svg">
<g filter="url(#filter0_bd_9_1061)">
<path d="M270.732 15.8358L354.692 16.2696L355.18 107.839L360.024 102.977C360.845 102.163 361.496 101.195 361.94 100.127C362.384 99.06 362.611 97.9152 362.609 96.7592V73.4962C362.606 72.3403 362.834 71.1954 363.277 70.128C363.721 69.0606 364.372 68.092 365.193 67.2783C366.827 65.608 367.737 63.3607 367.724 61.0242V23.4816C367.725 21.1509 366.802 18.9148 365.157 17.2637L353.661 5.78585C352.848 4.96482 351.879 4.31356 350.812 3.86985C349.744 3.42614 348.599 3.19881 347.443 3.20107H279.408C278.249 3.2004 277.102 3.42838 276.032 3.87193C274.962 4.31548 273.99 4.96588 273.172 5.78585C271.759 7.19707 270.082 8.31612 268.237 9.07907C266.391 9.84202 264.414 10.2339 262.417 10.2324H114.669C112.657 10.2439 110.663 9.85684 108.801 9.09366C106.94 8.33048 105.248 7.20625 103.823 5.78585C103.01 4.96482 102.041 4.31356 100.974 3.86985C99.9063 3.42614 98.7615 3.19881 97.6055 3.20107H29.5698C28.4139 3.19881 27.269 3.42614 26.2016 3.86985C25.1342 4.31356 24.1656 4.96482 23.3519 5.78585L11.8559 17.2637C10.2109 18.9148 9.28788 21.1509 9.28922 23.4816V61.0242C9.29097 63.3596 10.2132 65.6002 11.8559 67.2602C12.6791 68.0761 13.3316 69.0476 13.7754 70.1183C14.2192 71.1889 14.4453 72.3372 14.4407 73.4962V96.7231C14.4432 97.8816 14.6762 99.028 15.1262 100.096C15.5761 101.163 16.2341 102.13 17.0616 102.941L21.8697 107.839L22.3577 16.3057L106.318 15.8719H270.804L270.732 15.8358Z" fill="url(#paint0_linear_9_1061)" fill-opacity="0.56" shape-rendering="crispEdges"/>
<path d="M270.732 15.8358L354.692 16.2696L355.18 107.839L360.024 102.977C360.845 102.163 361.496 101.195 361.94 100.127C362.384 99.06 362.611 97.9152 362.609 96.7592V73.4962C362.606 72.3403 362.834 71.1954 363.277 70.128C363.721 69.0606 364.372 68.092 365.193 67.2783C366.827 65.608 367.737 63.3607 367.724 61.0242V23.4816C367.725 21.1509 366.802 18.9148 365.157 17.2637L353.661 5.78585C352.848 4.96482 351.879 4.31356 350.812 3.86985C349.744 3.42614 348.599 3.19881 347.443 3.20107H279.408C278.249 3.2004 277.102 3.42838 276.032 3.87193C274.962 4.31548 273.99 4.96588 273.172 5.78585C271.759 7.19707 270.082 8.31612 268.237 9.07907C266.391 9.84202 264.414 10.2339 262.417 10.2324H114.669C112.657 10.2439 110.663 9.85684 108.801 9.09366C106.94 8.33048 105.248 7.20625 103.823 5.78585C103.01 4.96482 102.041 4.31356 100.974 3.86985C99.9063 3.42614 98.7615 3.19881 97.6055 3.20107H29.5698C28.4139 3.19881 27.269 3.42614 26.2016 3.86985C25.1342 4.31356 24.1656 4.96482 23.3519 5.78585L11.8559 17.2637C10.2109 18.9148 9.28788 21.1509 9.28922 23.4816V61.0242C9.29097 63.3596 10.2132 65.6002 11.8559 67.2602C12.6791 68.0761 13.3316 69.0476 13.7754 70.1183C14.2192 71.1889 14.4453 72.3372 14.4407 73.4962V96.7231C14.4432 97.8816 14.6762 99.028 15.1262 100.096C15.5761 101.163 16.2341 102.13 17.0616 102.941L21.8697 107.839L22.3577 16.3057L106.318 15.8719H270.804L270.732 15.8358Z" fill="black" fill-opacity="0.65" shape-rendering="crispEdges"/>
<path d="M106.318 203.457L22.3577 203.023L21.8696 111.453L17.0616 116.352C16.2422 117.166 15.592 118.135 15.1484 119.202C14.7048 120.27 14.4766 121.414 14.4768 122.57V145.796C14.4775 146.955 14.2495 148.102 13.8059 149.172C13.3624 150.242 12.712 151.214 11.892 152.032C11.0688 152.849 10.4151 153.82 9.9684 154.891C9.52172 155.961 9.29089 157.109 9.28919 158.268V195.811C9.28785 198.142 10.2109 200.378 11.8559 202.029L23.3518 213.525C25.003 215.17 27.2391 216.093 29.5698 216.092H97.6416C99.9724 216.093 102.208 215.17 103.86 213.525C105.283 212.102 106.975 210.975 108.836 210.209C110.697 209.442 112.692 209.052 114.705 209.06H262.489C266.524 209.064 270.393 210.67 273.244 213.525C274.904 215.168 277.145 216.09 279.48 216.092H347.48C349.81 216.093 352.046 215.17 353.698 213.525L365.193 202.029C366.838 200.378 367.761 198.142 367.76 195.811V158.268C367.761 155.938 366.838 153.702 365.193 152.05C364.371 151.23 363.72 150.255 363.276 149.182C362.832 148.108 362.606 146.958 362.609 145.796V122.57C362.609 121.414 362.381 120.27 361.937 119.202C361.493 118.135 360.843 117.166 360.024 116.352L355.18 111.453L354.692 202.987L270.731 203.421H106.246L106.318 203.457Z" fill="url(#paint1_linear_9_1061)" fill-opacity="0.56" shape-rendering="crispEdges"/>
<path d="M106.318 203.457L22.3577 203.023L21.8696 111.453L17.0616 116.352C16.2422 117.166 15.592 118.135 15.1484 119.202C14.7048 120.27 14.4766 121.414 14.4768 122.57V145.796C14.4775 146.955 14.2495 148.102 13.8059 149.172C13.3624 150.242 12.712 151.214 11.892 152.032C11.0688 152.849 10.4151 153.82 9.9684 154.891C9.52172 155.961 9.29089 157.109 9.28919 158.268V195.811C9.28785 198.142 10.2109 200.378 11.8559 202.029L23.3518 213.525C25.003 215.17 27.2391 216.093 29.5698 216.092H97.6416C99.9724 216.093 102.208 215.17 103.86 213.525C105.283 212.102 106.975 210.975 108.836 210.209C110.697 209.442 112.692 209.052 114.705 209.06H262.489C266.524 209.064 270.393 210.67 273.244 213.525C274.904 215.168 277.145 216.09 279.48 216.092H347.48C349.81 216.093 352.046 215.17 353.698 213.525L365.193 202.029C366.838 200.378 367.761 198.142 367.76 195.811V158.268C367.761 155.938 366.838 153.702 365.193 152.05C364.371 151.23 363.72 150.255 363.276 149.182C362.832 148.108 362.606 146.958 362.609 145.796V122.57C362.609 121.414 362.381 120.27 361.937 119.202C361.493 118.135 360.843 117.166 360.024 116.352L355.18 111.453L354.692 202.987L270.731 203.421H106.246L106.318 203.457Z" fill="black" fill-opacity="0.65" shape-rendering="crispEdges"/>
<path d="M360.268 103.223L355.425 108.084L354.838 108.674L354.833 107.841L354.347 16.6143L270.812 16.1827L270.804 16.2184H106.318L22.7024 16.6504L22.2162 107.841L22.2117 108.682L21.6224 108.082L16.8192 103.189C16.8183 103.188 16.8175 103.187 16.8167 103.186C15.9574 102.344 15.2743 101.339 14.8069 100.23C14.3391 99.1202 14.0968 97.9283 14.0942 96.7238L14.0942 96.7231L14.0942 73.4962V73.4948C14.0987 72.3819 13.8815 71.2791 13.4553 70.251C13.0292 69.2228 12.4025 68.2898 11.612 67.5063L11.6096 67.5039C9.90278 65.7791 8.94456 63.451 8.94274 61.0245L8.94274 61.0242L8.94274 23.4818C8.94274 23.4818 8.94274 23.4817 8.94274 23.4816C8.9414 21.0593 9.90077 18.7352 11.6105 17.0192L11.6111 17.0185L23.1058 5.54195C23.106 5.54175 23.1062 5.54154 23.1064 5.54134C23.9522 4.68802 24.9591 4.01113 26.0686 3.54992C27.1782 3.08864 28.3684 2.85229 29.5701 2.85459M360.268 103.223L29.5698 3.20107M360.268 103.223C360.268 103.223 360.268 103.223 360.268 103.223L360.268 103.223ZM29.5701 2.85459C29.5702 2.85459 29.5704 2.85459 29.5705 2.85459L29.5698 3.20107M29.5701 2.85459H29.5698V3.20107M29.5701 2.85459H97.6052M29.5698 3.20107H97.6055M97.6052 2.85459C97.6051 2.85459 97.605 2.85459 97.6048 2.85459L97.6055 3.20107M97.6052 2.85459H97.6055V3.20107M97.6052 2.85459C98.8069 2.85229 99.9971 3.08864 101.107 3.54992C102.216 4.01112 103.223 4.688 104.069 5.54131C105.461 6.92903 107.114 8.0274 108.933 8.77308C110.752 9.51891 112.701 9.89713 114.667 9.88592L114.669 9.88591L262.417 9.88591H262.417C264.368 9.88741 266.301 9.50444 268.104 8.75888C269.908 8.01332 271.546 6.91977 272.927 5.54072C273.777 4.68866 274.787 4.0128 275.899 3.55186C277.012 3.09085 278.204 2.8539 279.408 2.85459H347.443H347.443V3.20107C348.599 3.19881 349.744 3.42614 350.812 3.86985C351.879 4.31356 352.848 4.96482 353.661 5.78585L97.6055 3.20107M353.907 5.54195C353.907 5.54153 353.907 5.54108 353.906 5.54066L360.024 102.977C360.845 102.163 361.496 101.195 361.94 100.127C362.384 99.06 362.611 97.9152 362.609 96.7592H362.955V96.7586V73.4962V73.4956C362.953 72.3855 363.171 71.286 363.597 70.261C364.023 69.236 364.649 68.3058 365.437 67.5244L365.441 67.5206C367.139 65.7851 368.084 63.4501 368.07 61.0223V23.4816C368.072 21.0594 367.113 18.7353 365.403 17.0192L365.402 17.0185L353.907 5.54195ZM21.6224 111.21L16.8173 116.106C16.8167 116.106 16.8161 116.107 16.8155 116.108C15.9646 116.954 15.2893 117.961 14.8284 119.069C14.3673 120.179 14.1301 121.368 14.1303 122.57C14.1303 122.57 14.1303 122.57 14.1303 122.57L14.1303 145.796L14.1303 145.797C14.131 146.909 13.912 148.011 13.4859 149.039C13.0598 150.067 12.435 151.001 11.6473 151.787C10.792 152.636 10.1128 153.645 9.64866 154.757C9.18439 155.87 8.94449 157.063 8.94271 158.268V158.268V195.811C8.94132 198.233 9.90069 200.557 11.6104 202.273L11.6109 202.274L23.1068 213.77L23.1073 213.77C24.8234 215.48 27.1475 216.439 29.57 216.438H97.6416C100.064 216.439 102.388 215.48 104.104 213.77L104.104 213.77C105.496 212.379 107.149 211.278 108.968 210.529C110.787 209.78 112.736 209.399 114.703 209.407H114.705H262.489C266.432 209.41 270.212 210.98 272.999 213.77L273 213.771C274.725 215.478 277.053 216.436 279.48 216.438H347.48C349.902 216.439 352.226 215.48 353.942 213.77L353.943 213.77L365.438 202.274L365.439 202.273C367.149 200.557 368.108 198.233 368.107 195.811V158.268C368.108 155.846 367.149 153.522 365.439 151.806L365.438 151.805C364.648 151.017 364.022 150.08 363.596 149.049C363.17 148.018 362.952 146.913 362.955 145.797V145.796V122.57C362.955 121.368 362.718 120.179 362.257 119.069C361.796 117.961 361.121 116.954 360.27 116.108C360.269 116.107 360.269 116.107 360.268 116.106L355.426 111.21L354.838 110.615L354.833 111.451L354.347 202.642L270.731 203.074L270.73 203.074L106.246 203.074L106.237 203.11L22.7023 202.678L22.2161 111.451L22.2116 110.61L21.6224 111.21Z" stroke="url(#paint2_radial_9_1061)" stroke-opacity="0.43" stroke-width="0.692953" shape-rendering="crispEdges"/>
<path d="M360.268 103.223L355.425 108.084L354.838 108.674L354.833 107.841L354.347 16.6143L270.812 16.1827L270.804 16.2184H106.318L22.7024 16.6504L22.2162 107.841L22.2117 108.682L21.6224 108.082L16.8192 103.189C16.8183 103.188 16.8175 103.187 16.8167 103.186C15.9574 102.344 15.2743 101.339 14.8069 100.23C14.3391 99.1202 14.0968 97.9283 14.0942 96.7238L14.0942 96.7231L14.0942 73.4962V73.4948C14.0987 72.3819 13.8815 71.2791 13.4553 70.251C13.0292 69.2228 12.4025 68.2898 11.612 67.5063L11.6096 67.5039C9.90278 65.7791 8.94456 63.451 8.94274 61.0245L8.94274 61.0242L8.94274 23.4818C8.94274 23.4818 8.94274 23.4817 8.94274 23.4816C8.9414 21.0593 9.90077 18.7352 11.6105 17.0192L11.6111 17.0185L23.1058 5.54195C23.106 5.54175 23.1062 5.54154 23.1064 5.54134C23.9522 4.68802 24.9591 4.01113 26.0686 3.54992C27.1782 3.08864 28.3684 2.85229 29.5701 2.85459M360.268 103.223L29.5698 3.20107M360.268 103.223C360.268 103.223 360.268 103.223 360.268 103.223L360.268 103.223ZM29.5701 2.85459C29.5702 2.85459 29.5704 2.85459 29.5705 2.85459L29.5698 3.20107M29.5701 2.85459H29.5698V3.20107M29.5701 2.85459H97.6052M29.5698 3.20107H97.6055M97.6052 2.85459C97.6051 2.85459 97.605 2.85459 97.6048 2.85459L97.6055 3.20107M97.6052 2.85459H97.6055V3.20107M97.6052 2.85459C98.8069 2.85229 99.9971 3.08864 101.107 3.54992C102.216 4.01112 103.223 4.688 104.069 5.54131C105.461 6.92903 107.114 8.0274 108.933 8.77308C110.752 9.51891 112.701 9.89713 114.667 9.88592L114.669 9.88591L262.417 9.88591H262.417C264.368 9.88741 266.301 9.50444 268.104 8.75888C269.908 8.01332 271.546 6.91977 272.927 5.54072C273.777 4.68866 274.787 4.0128 275.899 3.55186C277.012 3.09085 278.204 2.8539 279.408 2.85459H347.443H347.443V3.20107C348.599 3.19881 349.744 3.42614 350.812 3.86985C351.879 4.31356 352.848 4.96482 353.661 5.78585L97.6055 3.20107M353.907 5.54195C353.907 5.54153 353.907 5.54108 353.906 5.54066L360.024 102.977C360.845 102.163 361.496 101.195 361.94 100.127C362.384 99.06 362.611 97.9152 362.609 96.7592H362.955V96.7586V73.4962V73.4956C362.953 72.3855 363.171 71.286 363.597 70.261C364.023 69.236 364.649 68.3058 365.437 67.5244L365.441 67.5206C367.139 65.7851 368.084 63.4501 368.07 61.0223V23.4816C368.072 21.0594 367.113 18.7353 365.403 17.0192L365.402 17.0185L353.907 5.54195ZM21.6224 111.21L16.8173 116.106C16.8167 116.106 16.8161 116.107 16.8155 116.108C15.9646 116.954 15.2893 117.961 14.8284 119.069C14.3673 120.179 14.1301 121.368 14.1303 122.57C14.1303 122.57 14.1303 122.57 14.1303 122.57L14.1303 145.796L14.1303 145.797C14.131 146.909 13.912 148.011 13.4859 149.039C13.0598 150.067 12.435 151.001 11.6473 151.787C10.792 152.636 10.1128 153.645 9.64866 154.757C9.18439 155.87 8.94449 157.063 8.94271 158.268V158.268V195.811C8.94132 198.233 9.90069 200.557 11.6104 202.273L11.6109 202.274L23.1068 213.77L23.1073 213.77C24.8234 215.48 27.1475 216.439 29.57 216.438H97.6416C100.064 216.439 102.388 215.48 104.104 213.77L104.104 213.77C105.496 212.379 107.149 211.278 108.968 210.529C110.787 209.78 112.736 209.399 114.703 209.407H114.705H262.489C266.432 209.41 270.212 210.98 272.999 213.77L273 213.771C274.725 215.478 277.053 216.436 279.48 216.438H347.48C349.902 216.439 352.226 215.48 353.942 213.77L353.943 213.77L365.438 202.274L365.439 202.273C367.149 200.557 368.108 198.233 368.107 195.811V158.268C368.108 155.846 367.149 153.522 365.439 151.806L365.438 151.805C364.648 151.017 364.022 150.08 363.596 149.049C363.17 148.018 362.952 146.913 362.955 145.797V145.796V122.57C362.955 121.368 362.718 120.179 362.257 119.069C361.796 117.961 361.121 116.954 360.27 116.108C360.269 116.107 360.269 116.107 360.268 116.106L355.426 111.21L354.838 110.615L354.833 111.451L354.347 202.642L270.731 203.074L270.73 203.074L106.246 203.074L106.237 203.11L22.7023 202.678L22.2161 111.451L22.2116 110.61L21.6224 111.21Z" stroke="url(#paint3_radial_9_1061)" stroke-opacity="0.23" stroke-width="0.692953" shape-rendering="crispEdges"/>
<path d="M360.268 103.223L355.425 108.084L354.838 108.674L354.833 107.841L354.347 16.6143L270.812 16.1827L270.804 16.2184H106.318L22.7024 16.6504L22.2162 107.841L22.2117 108.682L21.6224 108.082L16.8192 103.189C16.8183 103.188 16.8175 103.187 16.8167 103.186C15.9574 102.344 15.2743 101.339 14.8069 100.23C14.3391 99.1202 14.0968 97.9283 14.0942 96.7238L14.0942 96.7231L14.0942 73.4962V73.4948C14.0987 72.3819 13.8815 71.2791 13.4553 70.251C13.0292 69.2228 12.4025 68.2898 11.612 67.5063L11.6096 67.5039C9.90278 65.7791 8.94456 63.451 8.94274 61.0245L8.94274 61.0242L8.94274 23.4818C8.94274 23.4818 8.94274 23.4817 8.94274 23.4816C8.9414 21.0593 9.90077 18.7352 11.6105 17.0192L11.6111 17.0185L23.1058 5.54195C23.106 5.54175 23.1062 5.54154 23.1064 5.54134C23.9522 4.68802 24.9591 4.01113 26.0686 3.54992C27.1782 3.08864 28.3684 2.85229 29.5701 2.85459M360.268 103.223L29.5698 3.20107M360.268 103.223C360.268 103.223 360.268 103.223 360.268 103.223L360.268 103.223ZM29.5701 2.85459C29.5702 2.85459 29.5704 2.85459 29.5705 2.85459L29.5698 3.20107M29.5701 2.85459H29.5698V3.20107M29.5701 2.85459H97.6052M29.5698 3.20107H97.6055M97.6052 2.85459C97.6051 2.85459 97.605 2.85459 97.6048 2.85459L97.6055 3.20107M97.6052 2.85459H97.6055V3.20107M97.6052 2.85459C98.8069 2.85229 99.9971 3.08864 101.107 3.54992C102.216 4.01112 103.223 4.688 104.069 5.54131C105.461 6.92903 107.114 8.0274 108.933 8.77308C110.752 9.51891 112.701 9.89713 114.667 9.88592L114.669 9.88591L262.417 9.88591H262.417C264.368 9.88741 266.301 9.50444 268.104 8.75888C269.908 8.01332 271.546 6.91977 272.927 5.54072C273.777 4.68866 274.787 4.0128 275.899 3.55186C277.012 3.09085 278.204 2.8539 279.408 2.85459H347.443H347.443V3.20107C348.599 3.19881 349.744 3.42614 350.812 3.86985C351.879 4.31356 352.848 4.96482 353.661 5.78585L97.6055 3.20107M353.907 5.54195C353.907 5.54153 353.907 5.54108 353.906 5.54066L360.024 102.977C360.845 102.163 361.496 101.195 361.94 100.127C362.384 99.06 362.611 97.9152 362.609 96.7592H362.955V96.7586V73.4962V73.4956C362.953 72.3855 363.171 71.286 363.597 70.261C364.023 69.236 364.649 68.3058 365.437 67.5244L365.441 67.5206C367.139 65.7851 368.084 63.4501 368.07 61.0223V23.4816C368.072 21.0594 367.113 18.7353 365.403 17.0192L365.402 17.0185L353.907 5.54195ZM21.6224 111.21L16.8173 116.106C16.8167 116.106 16.8161 116.107 16.8155 116.108C15.9646 116.954 15.2893 117.961 14.8284 119.069C14.3673 120.179 14.1301 121.368 14.1303 122.57C14.1303 122.57 14.1303 122.57 14.1303 122.57L14.1303 145.796L14.1303 145.797C14.131 146.909 13.912 148.011 13.4859 149.039C13.0598 150.067 12.435 151.001 11.6473 151.787C10.792 152.636 10.1128 153.645 9.64866 154.757C9.18439 155.87 8.94449 157.063 8.94271 158.268V158.268V195.811C8.94132 198.233 9.90069 200.557 11.6104 202.273L11.6109 202.274L23.1068 213.77L23.1073 213.77C24.8234 215.48 27.1475 216.439 29.57 216.438H97.6416C100.064 216.439 102.388 215.48 104.104 213.77L104.104 213.77C105.496 212.379 107.149 211.278 108.968 210.529C110.787 209.78 112.736 209.399 114.703 209.407H114.705H262.489C266.432 209.41 270.212 210.98 272.999 213.77L273 213.771C274.725 215.478 277.053 216.436 279.48 216.438H347.48C349.902 216.439 352.226 215.48 353.942 213.77L353.943 213.77L365.438 202.274L365.439 202.273C367.149 200.557 368.108 198.233 368.107 195.811V158.268C368.108 155.846 367.149 153.522 365.439 151.806L365.438 151.805C364.648 151.017 364.022 150.08 363.596 149.049C363.17 148.018 362.952 146.913 362.955 145.797V145.796V122.57C362.955 121.368 362.718 120.179 362.257 119.069C361.796 117.961 361.121 116.954 360.27 116.108C360.269 116.107 360.269 116.107 360.268 116.106L355.426 111.21L354.838 110.615L354.833 111.451L354.347 202.642L270.731 203.074L270.73 203.074L106.246 203.074L106.237 203.11L22.7023 202.678L22.2161 111.451L22.2116 110.61L21.6224 111.21Z" stroke="url(#paint4_radial_9_1061)" stroke-width="0.692953" shape-rendering="crispEdges"/>
<path d="M360.268 103.223L355.425 108.084L354.838 108.674L354.833 107.841L354.347 16.6143L270.812 16.1827L270.804 16.2184H106.318L22.7024 16.6504L22.2162 107.841L22.2117 108.682L21.6224 108.082L16.8192 103.189C16.8183 103.188 16.8175 103.187 16.8167 103.186C15.9574 102.344 15.2743 101.339 14.8069 100.23C14.3391 99.1202 14.0968 97.9283 14.0942 96.7238L14.0942 96.7231L14.0942 73.4962V73.4948C14.0987 72.3819 13.8815 71.2791 13.4553 70.251C13.0292 69.2228 12.4025 68.2898 11.612 67.5063L11.6096 67.5039C9.90278 65.7791 8.94456 63.451 8.94274 61.0245L8.94274 61.0242L8.94274 23.4818C8.94274 23.4818 8.94274 23.4817 8.94274 23.4816C8.9414 21.0593 9.90077 18.7352 11.6105 17.0192L11.6111 17.0185L23.1058 5.54195C23.106 5.54175 23.1062 5.54154 23.1064 5.54134C23.9522 4.68802 24.9591 4.01113 26.0686 3.54992C27.1782 3.08864 28.3684 2.85229 29.5701 2.85459M360.268 103.223L29.5698 3.20107M360.268 103.223C360.268 103.223 360.268 103.223 360.268 103.223L360.268 103.223ZM29.5701 2.85459C29.5702 2.85459 29.5704 2.85459 29.5705 2.85459L29.5698 3.20107M29.5701 2.85459H29.5698V3.20107M29.5701 2.85459H97.6052M29.5698 3.20107H97.6055M97.6052 2.85459C97.6051 2.85459 97.605 2.85459 97.6048 2.85459L97.6055 3.20107M97.6052 2.85459H97.6055V3.20107M97.6052 2.85459C98.8069 2.85229 99.9971 3.08864 101.107 3.54992C102.216 4.01112 103.223 4.688 104.069 5.54131C105.461 6.92903 107.114 8.0274 108.933 8.77308C110.752 9.51891 112.701 9.89713 114.667 9.88592L114.669 9.88591L262.417 9.88591H262.417C264.368 9.88741 266.301 9.50444 268.104 8.75888C269.908 8.01332 271.546 6.91977 272.927 5.54072C273.777 4.68866 274.787 4.0128 275.899 3.55186C277.012 3.09085 278.204 2.8539 279.408 2.85459H347.443H347.443V3.20107C348.599 3.19881 349.744 3.42614 350.812 3.86985C351.879 4.31356 352.848 4.96482 353.661 5.78585L97.6055 3.20107M353.907 5.54195C353.907 5.54153 353.907 5.54108 353.906 5.54066L360.024 102.977C360.845 102.163 361.496 101.195 361.94 100.127C362.384 99.06 362.611 97.9152 362.609 96.7592H362.955V96.7586V73.4962V73.4956C362.953 72.3855 363.171 71.286 363.597 70.261C364.023 69.236 364.649 68.3058 365.437 67.5244L365.441 67.5206C367.139 65.7851 368.084 63.4501 368.07 61.0223V23.4816C368.072 21.0594 367.113 18.7353 365.403 17.0192L365.402 17.0185L353.907 5.54195ZM21.6224 111.21L16.8173 116.106C16.8167 116.106 16.8161 116.107 16.8155 116.108C15.9646 116.954 15.2893 117.961 14.8284 119.069C14.3673 120.179 14.1301 121.368 14.1303 122.57C14.1303 122.57 14.1303 122.57 14.1303 122.57L14.1303 145.796L14.1303 145.797C14.131 146.909 13.912 148.011 13.4859 149.039C13.0598 150.067 12.435 151.001 11.6473 151.787C10.792 152.636 10.1128 153.645 9.64866 154.757C9.18439 155.87 8.94449 157.063 8.94271 158.268V158.268V195.811C8.94132 198.233 9.90069 200.557 11.6104 202.273L11.6109 202.274L23.1068 213.77L23.1073 213.77C24.8234 215.48 27.1475 216.439 29.57 216.438H97.6416C100.064 216.439 102.388 215.48 104.104 213.77L104.104 213.77C105.496 212.379 107.149 211.278 108.968 210.529C110.787 209.78 112.736 209.399 114.703 209.407H114.705H262.489C266.432 209.41 270.212 210.98 272.999 213.77L273 213.771C274.725 215.478 277.053 216.436 279.48 216.438H347.48C349.902 216.439 352.226 215.48 353.942 213.77L353.943 213.77L365.438 202.274L365.439 202.273C367.149 200.557 368.108 198.233 368.107 195.811V158.268C368.108 155.846 367.149 153.522 365.439 151.806L365.438 151.805C364.648 151.017 364.022 150.08 363.596 149.049C363.17 148.018 362.952 146.913 362.955 145.797V145.796V122.57C362.955 121.368 362.718 120.179 362.257 119.069C361.796 117.961 361.121 116.954 360.27 116.108C360.269 116.107 360.269 116.107 360.268 116.106L355.426 111.21L354.838 110.615L354.833 111.451L354.347 202.642L270.731 203.074L270.73 203.074L106.246 203.074L106.237 203.11L22.7023 202.678L22.2161 111.451L22.2116 110.61L21.6224 111.21Z" stroke="#FDFF9F" stroke-opacity="0.29" stroke-width="0.692953" shape-rendering="crispEdges"/>
</g>
<g opacity="0.5">
<path d="M310.226 14.2811H349.884C350.319 14.2843 350.745 14.1578 351.107 13.9177C351.47 13.6776 351.753 13.3348 351.92 12.9332C352.086 12.5316 352.13 12.0893 352.044 11.663C351.958 11.2366 351.747 10.8455 351.438 10.5395L349.161 8.26204C348.749 7.8479 348.19 7.61389 347.606 7.61133H313.823C313.624 7.61121 313.427 7.65115 313.244 7.72879C313.061 7.80642 312.895 7.92016 312.757 8.06321L309.142 11.6783C308.925 11.8907 308.777 12.1632 308.716 12.4606C308.656 12.758 308.686 13.0668 308.803 13.3469C308.92 13.6271 309.118 13.8659 309.371 14.0324C309.625 14.1989 309.923 14.2856 310.226 14.2811Z" fill="url(#paint5_linear_9_1061)"/>
<path d="M66.8232 205.029H27.1658C26.7309 205.026 26.305 205.153 25.9423 205.393C25.5797 205.633 25.2969 205.976 25.13 206.377C24.9632 206.779 24.9199 207.221 25.0056 207.648C25.0913 208.074 25.3022 208.465 25.6113 208.771L27.9069 211.03C28.3185 211.445 28.8775 211.679 29.4614 211.681H63.2262C63.425 211.68 63.6217 211.64 63.8048 211.562C63.9879 211.485 64.1537 211.371 64.2926 211.229C65.5037 210.036 66.6967 208.825 67.9077 207.614C68.1183 207.401 68.2609 207.13 68.3178 206.836C68.3746 206.541 68.343 206.237 68.2271 205.96C68.1111 205.684 67.9159 205.448 67.666 205.282C67.4162 205.117 67.123 205.029 66.8232 205.029Z" fill="url(#paint6_linear_9_1061)"/>
<path d="M310.226 205.029H349.883C350.318 205.026 350.744 205.153 351.107 205.393C351.469 205.633 351.752 205.976 351.919 206.377C352.086 206.779 352.129 207.221 352.044 207.648C351.958 208.074 351.747 208.465 351.438 208.771L349.16 211.03C348.749 211.445 348.19 211.679 347.606 211.681H313.823C313.624 211.681 313.427 211.641 313.244 211.564C313.061 211.486 312.895 211.372 312.757 211.229C311.545 210.036 310.353 208.825 309.141 207.614C308.931 207.401 308.788 207.13 308.731 206.836C308.675 206.541 308.706 206.237 308.822 205.96C308.938 205.684 309.133 205.448 309.383 205.282C309.633 205.117 309.926 205.029 310.226 205.029Z" fill="url(#paint7_linear_9_1061)"/>
<path d="M66.8232 14.2811H27.1658C26.7309 14.2843 26.305 14.1578 25.9424 13.9177C25.5797 13.6776 25.2969 13.3348 25.1301 12.9332C24.9632 12.5316 24.9199 12.0893 25.0056 11.663C25.0913 11.2366 25.3022 10.8455 25.6114 10.5395L27.9069 8.26204C28.3185 7.8479 28.8775 7.61389 29.4614 7.61133H63.2262C63.4251 7.61222 63.6217 7.65263 63.8048 7.7302C63.9879 7.80778 64.1537 7.92098 64.2927 8.06321L67.9077 11.6783C68.1246 11.8907 68.2728 12.1632 68.3332 12.4606C68.3937 12.758 68.3636 13.0668 68.2468 13.3469C68.1301 13.6271 67.9321 13.8659 67.6783 14.0324C67.4246 14.1989 67.1267 14.2856 66.8232 14.2811Z" fill="url(#paint8_linear_9_1061)"/>
<path d="M304.009 10.9375C303.537 10.9359 303.069 11.0295 302.635 11.2127C302.2 11.396 301.807 11.6651 301.478 12.004L299.201 14.2815H302.816C303.773 14.2774 304.689 13.8939 305.364 13.215L307.624 10.9375H304.009Z" fill="url(#paint9_linear_9_1061)"/>
<path d="M73.0955 208.355C74.0438 208.351 74.9527 207.975 75.626 207.307L77.9035 205.029H74.2884C73.3338 205.029 72.4176 205.405 71.7398 206.078L69.4804 208.355H73.0955Z" fill="url(#paint10_linear_9_1061)"/>
<path d="M304.009 208.355C303.06 208.351 302.152 207.975 301.478 207.307L299.201 205.029H302.816C303.77 205.029 304.687 205.405 305.364 206.078L307.624 208.355H304.009Z" fill="url(#paint11_linear_9_1061)"/>
<path d="M73.0954 10.9375C73.5673 10.9359 74.0346 11.0295 74.4694 11.2127C74.9043 11.396 75.2976 11.6651 75.626 12.004L77.9035 14.2815H74.2884C73.3312 14.2774 72.4146 13.8939 71.7398 13.215L69.4804 10.9375H73.0954Z" fill="url(#paint12_linear_9_1061)"/>
<path d="M296.453 10.9375C295.502 10.9463 294.592 11.3295 293.922 12.004L291.645 14.2815H295.26C296.211 14.2727 297.12 13.8895 297.79 13.215L300.068 10.9375H296.453Z" fill="url(#paint13_linear_9_1061)"/>
<path d="M80.5968 208.355C81.5452 208.351 82.454 207.975 83.1273 207.307L85.4048 205.029H81.7898C80.8414 205.033 79.9326 205.41 79.2592 206.078L76.9817 208.355H80.5968Z" fill="url(#paint14_linear_9_1061)"/>
<path d="M296.453 208.355C295.504 208.351 294.595 207.975 293.922 207.307L291.645 205.029H295.26C296.208 205.033 297.117 205.41 297.79 206.078L300.068 208.355H296.453Z" fill="url(#paint15_linear_9_1061)"/>
<path d="M80.5968 10.9375C81.5478 10.9463 82.457 11.3295 83.1274 12.004L85.4049 14.2815H81.7898C80.8388 14.2727 79.9297 13.8895 79.2593 13.215L76.9818 10.9375H80.5968Z" fill="url(#paint16_linear_9_1061)"/>
<path d="M288.915 10.9375C287.959 10.9559 287.049 11.3523 286.385 12.0401L284.107 14.3176H287.722C288.194 14.3193 288.662 14.2256 289.096 14.0424C289.531 13.8592 289.925 13.59 290.253 13.2512L292.53 10.9737L288.915 10.9375Z" fill="url(#paint17_linear_9_1061)"/>
<path d="M88.1341 208.355C89.0888 208.356 90.005 207.979 90.6828 207.307L92.9422 205.029H89.3271C88.3788 205.033 87.4699 205.41 86.7966 206.078L84.5191 208.355H88.1341Z" fill="url(#paint18_linear_9_1061)"/>
<path d="M288.915 208.355C287.959 208.336 287.049 207.94 286.385 207.252L284.107 204.975H287.722C288.671 204.979 289.58 205.355 290.253 206.023L292.53 208.301L288.915 208.355Z" fill="url(#paint19_linear_9_1061)"/>
<path d="M88.1344 10.9375C89.0916 10.9415 90.0082 11.3251 90.683 12.004L92.9786 14.2815H89.3635C88.8916 14.2831 88.4243 14.1895 87.9895 14.0063C87.5547 13.823 87.1613 13.5539 86.8329 13.215L84.5554 10.9375H88.1344Z" fill="url(#paint20_linear_9_1061)"/>
<path d="M281.36 10.9375C280.888 10.9359 280.421 11.0295 279.986 11.2127C279.551 11.396 279.158 11.6651 278.829 12.004L276.552 14.2815H280.167C281.124 14.2774 282.041 13.8939 282.716 13.215L284.993 10.9375H281.36Z" fill="url(#paint21_linear_9_1061)"/>
<path d="M95.6893 208.355C96.6377 208.351 97.5465 207.975 98.2199 207.307L100.497 205.029H96.8823C95.9277 205.029 95.0115 205.405 94.3337 206.078L92.0562 208.355H95.6893Z" fill="url(#paint22_linear_9_1061)"/>
<path d="M281.36 208.355C280.412 208.351 279.503 207.975 278.83 207.307L276.552 205.029H280.167C281.122 205.029 282.038 205.405 282.716 206.078L284.993 208.355H281.36Z" fill="url(#paint23_linear_9_1061)"/>
<path d="M95.6894 10.9375C96.6404 10.9463 97.5496 11.3295 98.22 12.004L100.497 14.2815H96.8824C95.9252 14.2774 95.0086 13.8939 94.3338 13.215L92.0563 10.9375H95.6894Z" fill="url(#paint24_linear_9_1061)"/>
<path d="M362.681 21.7986L360.494 19.5392C360.189 19.2312 359.799 19.0207 359.375 18.9344C358.95 18.8481 358.509 18.8899 358.108 19.0546C357.707 19.2192 357.365 19.4991 357.123 19.859C356.882 20.2188 356.752 20.6423 356.752 21.0756V79.6037L358.234 78.1215C358.997 77.3596 359.426 76.3258 359.427 75.2475V55.8707C359.425 55.2961 359.537 54.7267 359.757 54.196C359.978 53.6652 360.302 53.1838 360.711 52.7798C362.432 51.0438 363.399 48.6993 363.404 46.2546V23.3531C363.376 22.7601 363.117 22.2017 362.681 21.7986Z" fill="url(#paint25_linear_9_1061)"/>
<path d="M356.662 101.441L358.289 99.8137C358.957 99.1404 359.334 98.2316 359.338 97.2832V94.373L357.711 95.9818C357.038 96.6596 356.662 97.5757 356.662 98.5304V101.441Z" fill="url(#paint26_linear_9_1061)"/>
<path d="M356.662 94.1534L358.289 92.5266C358.957 91.8533 359.334 90.9445 359.338 89.9961V87.0859L357.711 88.7127C357.043 89.3861 356.666 90.2949 356.662 91.2433V94.1534Z" fill="url(#paint27_linear_9_1061)"/>
<path d="M356.662 86.8878L358.289 85.261C358.961 84.5832 359.338 83.667 359.338 82.7124V79.8203L357.711 81.429C357.038 82.1068 356.662 83.023 356.662 83.9776V86.8878Z" fill="url(#paint28_linear_9_1061)"/>
<path d="M14.3685 197.495L16.646 199.772C16.9519 200.081 17.3431 200.292 17.7694 200.378C18.1958 200.463 18.638 200.42 19.0397 200.253C19.4413 200.086 19.784 199.804 20.0241 199.441C20.2642 199.078 20.3908 198.652 20.3876 198.218V139.689L18.9054 141.172C18.1588 141.922 17.7314 142.933 17.7124 143.991V163.368C17.7169 163.943 17.6056 164.513 17.3851 165.044C17.1646 165.575 16.8395 166.056 16.4291 166.459C15.5735 167.316 14.8953 168.334 14.4331 169.454C13.971 170.573 13.7341 171.773 13.7359 172.984V195.886C13.7265 196.183 13.7777 196.479 13.8865 196.755C13.9953 197.032 14.1593 197.283 14.3685 197.495Z" fill="url(#paint29_linear_9_1061)"/>
<path d="M20.3878 117.871L18.761 119.48C18.0888 120.158 17.7119 121.074 17.7127 122.028V124.939L19.3395 123.312C20.0117 122.634 20.3886 121.718 20.3878 120.763V117.871Z" fill="url(#paint30_linear_9_1061)"/>
<path d="M20.3878 125.137L18.761 126.764C18.0932 127.437 17.7167 128.346 17.7127 129.294V132.204L19.3395 130.577C20.0073 129.904 20.3838 128.995 20.3878 128.047V125.137Z" fill="url(#paint31_linear_9_1061)"/>
<path d="M20.3879 132.42L18.7611 134.029C18.0888 134.707 17.712 135.623 17.7127 136.577V139.488L19.3395 137.861C20.0074 137.187 20.3839 136.279 20.3879 135.33V132.42Z" fill="url(#paint32_linear_9_1061)"/>
<path d="M362.681 197.495L360.494 199.772C360.188 200.081 359.797 200.292 359.37 200.378C358.944 200.463 358.502 200.42 358.1 200.253C357.698 200.086 357.356 199.804 357.116 199.441C356.875 199.078 356.749 198.652 356.752 198.218V139.689L358.234 141.172C358.994 141.936 359.422 142.968 359.427 144.046V163.422C359.423 163.997 359.534 164.567 359.755 165.098C359.975 165.629 360.3 166.111 360.711 166.513C362.432 168.249 363.4 170.594 363.404 173.039V195.94C363.376 196.533 363.117 197.091 362.681 197.495Z" fill="url(#paint33_linear_9_1061)"/>
<path d="M356.662 117.871L358.289 119.48C358.961 120.158 359.338 121.074 359.338 122.028V124.939L357.711 123.312C357.038 122.634 356.662 121.718 356.662 120.763V117.871Z" fill="url(#paint34_linear_9_1061)"/>
<path d="M356.662 125.137L358.289 126.764C358.957 127.437 359.334 128.346 359.338 129.294V132.204L357.711 130.577C357.043 129.904 356.666 128.995 356.662 128.047V125.137Z" fill="url(#paint35_linear_9_1061)"/>
<path d="M356.662 132.42L358.289 134.029C358.961 134.707 359.338 135.623 359.337 136.577V139.488L357.711 137.861C357.043 137.187 356.666 136.279 356.662 135.33V132.42Z" fill="url(#paint36_linear_9_1061)"/>
<path d="M14.3683 21.7986L16.6458 19.5392C16.9507 19.2312 17.3401 19.0207 17.7648 18.9344C18.1895 18.8481 18.6302 18.8899 19.0311 19.0546C19.432 19.2192 19.7749 19.4991 20.0164 19.859C20.2579 20.2188 20.387 20.6423 20.3874 21.0756V79.6037L18.8691 78.1215C18.1326 77.3671 17.7178 76.3561 17.7123 75.3018V55.8707C17.7147 55.2961 17.6024 54.7267 17.3821 54.196C17.1617 53.6652 16.8377 53.1838 16.4289 52.7798C15.5733 51.9225 14.8951 50.9049 14.433 49.7852C13.9708 48.6656 13.7339 47.4659 13.7357 46.2546V23.3531C13.7336 23.0651 13.7884 22.7795 13.897 22.5128C14.0055 22.246 14.1657 22.0033 14.3683 21.7986Z" fill="url(#paint37_linear_9_1061)"/>
<path d="M20.3878 101.441L18.761 99.8137C18.0932 99.1404 17.7167 98.2316 17.7127 97.2832V94.373L19.3395 95.9818C20.0117 96.6596 20.3886 97.5757 20.3878 98.5304V101.441Z" fill="url(#paint38_linear_9_1061)"/>
<path d="M20.3878 94.1534L18.761 92.5266C18.0932 91.8533 17.7167 90.9445 17.7127 89.9961V87.0859L19.3395 88.7127C20.0073 89.3861 20.3838 90.2949 20.3878 91.2433V94.1534Z" fill="url(#paint39_linear_9_1061)"/>
<path d="M20.3878 86.8878L18.761 85.261C18.0888 84.5832 17.7119 83.667 17.7127 82.7124V79.8203L19.3395 81.429C20.0117 82.1068 20.3886 83.023 20.3878 83.9776V86.8878Z" fill="url(#paint40_linear_9_1061)"/>
<path d="M246.746 12.4708C246.986 12.4708 247.215 12.5661 247.385 12.7356C247.554 12.905 247.65 13.1349 247.65 13.3746C247.645 13.6129 247.548 13.8401 247.38 14.0086C247.211 14.1771 246.984 14.2738 246.746 14.2784H130.304C130.066 14.2738 129.839 14.1771 129.67 14.0086C129.502 13.8401 129.405 13.6129 129.4 13.3746C129.4 13.1349 129.496 12.905 129.665 12.7356C129.835 12.5661 130.065 12.4708 130.304 12.4708H246.746Z" fill="url(#paint41_linear_9_1061)"/>
<path d="M130.304 206.837C130.066 206.832 129.839 206.736 129.67 206.567C129.502 206.399 129.405 206.171 129.4 205.933C129.4 205.693 129.496 205.463 129.665 205.294C129.835 205.125 130.064 205.029 130.304 205.029H246.746C246.986 205.029 247.215 205.125 247.385 205.294C247.554 205.463 247.65 205.693 247.65 205.933C247.645 206.171 247.548 206.399 247.38 206.567C247.211 206.736 246.984 206.832 246.746 206.837H130.304Z" fill="url(#paint42_linear_9_1061)"/>
</g>
<path d="M354.945 108.344V107.838L354.475 16.5393L270.732 16.0874H106.246L22.5023 16.5393L22.0323 108.38L16.7905 103.138C15.9458 102.305 15.2758 101.311 14.8195 100.216C14.3633 99.1201 14.1301 97.9446 14.1334 96.7578V73.4948C14.1427 72.3647 13.927 71.2441 13.4987 70.1983C13.0705 69.1525 12.4383 68.2024 11.639 67.4034C9.94952 65.7097 9.00051 63.4151 9 61.0228V23.4802C9.00051 21.0879 9.94952 18.7934 11.639 17.0996L23.1349 5.62176C23.9773 4.77622 24.981 4.10853 26.0864 3.6583C27.1918 3.20808 28.3763 2.9845 29.5698 3.00083H97.6417C98.8276 2.99209 100.003 3.22111 101.099 3.67438C102.195 4.12765 103.189 4.79596 104.022 5.63984C105.418 7.03875 107.078 8.14595 108.906 8.89694C110.734 9.64792 112.693 10.0277 114.669 10.0141H262.453C264.422 10.0211 266.372 9.6364 268.19 8.88232C270.009 8.12823 271.659 7.01987 273.045 5.62176C274.737 3.94332 277.024 3.00132 279.408 3.00083H347.48C348.665 2.99412 349.84 3.22407 350.936 3.67722C352.032 4.13037 353.026 4.79761 353.86 5.63984L365.338 17.1177C366.183 17.9513 366.853 18.9449 367.309 20.0405C367.765 21.1361 367.998 22.3116 367.995 23.4983V61.0228C368 62.2099 367.768 63.386 367.312 64.4818C366.855 65.5776 366.184 66.571 365.338 67.4034C364.539 68.2033 363.905 69.1532 363.474 70.1985C363.043 71.2438 362.823 72.3641 362.826 73.4948V96.7217C362.825 99.114 361.876 101.409 360.187 103.102L354.945 108.344ZM270.732 15.6536L354.909 16.1055V16.3224L355.379 107.314L359.843 102.831C360.641 102.03 361.27 101.076 361.693 100.026C362.115 98.9765 362.322 97.8528 362.301 96.7217V73.4948C362.298 72.3081 362.531 71.1326 362.988 70.037C363.444 68.9414 364.114 67.9478 364.958 67.1142C365.756 66.3165 366.388 65.3696 366.819 64.3275C367.25 63.2854 367.472 62.1686 367.471 61.0409V23.4802C367.485 21.2302 366.608 19.0662 365.031 17.4611L353.535 5.9652C352.741 5.16947 351.797 4.53925 350.757 4.11107C349.718 3.68289 348.604 3.46526 347.48 3.4708H279.408C278.281 3.46685 277.165 3.68513 276.123 4.11315C275.08 4.54117 274.133 5.17053 273.334 5.9652C271.915 7.39951 270.227 8.53883 268.365 9.31749C266.504 10.0961 264.507 10.4988 262.489 10.5021H114.669C112.651 10.4988 110.654 10.0961 108.793 9.31749C106.931 8.53883 105.242 7.39951 103.823 5.9652C103.025 5.17053 102.077 4.54117 101.035 4.11315C99.9931 3.68513 98.8767 3.46685 97.7501 3.4708H29.5698C28.4432 3.46685 27.3268 3.68513 26.2847 4.11315C25.2426 4.54117 24.2951 5.17053 23.4964 5.9652L12.0186 17.4611C11.222 18.2555 10.59 19.1993 10.1589 20.2384C9.72776 21.2775 9.50592 22.3914 9.50611 23.5164V61.0228C9.50552 62.1505 9.7271 63.2673 10.1582 64.3094C10.5893 65.3515 11.2215 66.2984 12.0186 67.0961C12.8573 67.937 13.5221 68.9349 13.9749 70.0328C14.4277 71.1308 14.6597 72.3072 14.6576 73.4948V96.7217C14.6574 97.8467 14.8792 98.9606 15.3104 99.9997C15.7415 101.039 16.3735 101.983 17.1701 102.777L21.6528 107.26L22.1227 16.0513H22.3577L106.318 15.6536H270.732Z" fill="url(#paint43_linear_9_1061)"/>
<path d="M347.48 216.29H279.408C278.22 216.292 277.044 216.06 275.946 215.607C274.848 215.154 273.85 214.489 273.009 213.651C271.625 212.249 269.975 211.138 268.156 210.38C266.338 209.623 264.387 209.236 262.417 209.24H114.669C112.698 209.238 110.746 209.625 108.926 210.378C107.105 211.132 105.451 212.238 104.058 213.633C103.226 214.479 102.233 215.15 101.137 215.606C100.041 216.063 98.8649 216.295 97.6778 216.29H29.5698C27.1775 216.289 24.8829 215.34 23.1892 213.651L11.639 202.191C9.94952 200.497 9.00051 198.203 9 195.81V158.268C9.00051 155.875 9.94952 153.581 11.639 151.887C12.4513 151.094 13.0969 150.147 13.5377 149.101C13.9785 148.055 14.2056 146.931 14.2057 145.796V122.569C14.211 120.174 15.1667 117.879 16.8628 116.188L22.1047 110.946V111.452L22.5746 202.769L106.318 203.203H270.804L354.547 202.769L355.017 110.91L360.259 116.152C361.948 117.846 362.897 120.14 362.898 122.533V145.796C362.897 146.923 363.119 148.04 363.55 149.082C363.981 150.124 364.613 151.071 365.41 151.869C366.257 152.701 366.928 153.695 367.384 154.791C367.84 155.886 368.073 157.063 368.067 158.25V195.792C368.071 196.979 367.837 198.154 367.381 199.25C366.925 200.346 366.255 201.339 365.41 202.173L353.932 213.669C353.084 214.511 352.076 215.176 350.969 215.626C349.861 216.076 348.675 216.301 347.48 216.29ZM114.669 208.825H262.453C264.471 208.828 266.468 209.23 268.329 210.009C270.19 210.788 271.879 211.927 273.298 213.361C274.096 214.159 275.043 214.791 276.085 215.222C277.127 215.653 278.244 215.875 279.372 215.874H347.48C348.605 215.876 349.719 215.655 350.759 215.224C351.798 214.793 352.742 214.16 353.535 213.361L365.031 201.865C365.829 201.072 366.462 200.129 366.893 199.089C367.325 198.05 367.545 196.935 367.543 195.81V158.268C367.544 157.14 367.322 156.023 366.891 154.981C366.46 153.939 365.828 152.992 365.031 152.194C364.169 151.366 363.483 150.372 363.014 149.273C362.545 148.174 362.303 146.991 362.301 145.796V122.569C362.304 121.444 362.083 120.329 361.651 119.29C361.22 118.25 360.587 117.307 359.789 116.514L355.324 112.031L354.836 203.239H354.619L270.659 203.673H106.173L21.9781 203.221V203.004L21.5082 112.013L17.1701 116.514C15.5646 118.12 14.6612 120.297 14.6576 122.569V145.796C14.6571 148.188 13.7081 150.482 12.0186 152.176C11.2215 152.974 10.5893 153.921 10.1582 154.963C9.7271 156.005 9.50552 157.122 9.50611 158.25V195.792C9.50633 196.914 9.72842 198.025 10.1596 199.062C10.5908 200.098 11.2226 201.038 12.0186 201.829L23.4964 213.325C24.2942 214.122 25.2411 214.755 26.2832 215.186C27.3253 215.617 28.4421 215.838 29.5698 215.838H97.6417C98.7694 215.838 99.8862 215.617 100.928 215.186C101.97 214.755 102.917 214.122 103.715 213.325C105.15 211.884 106.858 210.744 108.738 209.971C110.619 209.199 112.635 208.809 114.669 208.825Z" fill="url(#paint44_linear_9_1061)"/>
<defs>
<filter id="filter0_bd_9_1061" x="-20.5078" y="-26.5959" width="418.065" height="272.484" filterUnits="userSpaceOnUse" color-interpolation-filters="sRGB">
<feFlood flood-opacity="0" result="BackgroundImageFix"/>
<feGaussianBlur in="BackgroundImage" stdDeviation="14.552"/>
<feComposite in2="SourceAlpha" operator="in" result="effect1_backgroundBlur_9_1061"/>
<feColorMatrix in="SourceAlpha" type="matrix" values="0 0 0 0 0 0 0 0 0 0 0 0 0 0 0 0 0 0 127 0" result="hardAlpha"/>
<feOffset dy="6.23657"/>
<feGaussianBlur stdDeviation="4.15772"/>
<feComposite in2="hardAlpha" operator="out"/>
<feColorMatrix type="matrix" values="0 0 0 0 0 0 0 0 0 0 0 0 0 0 0 0 0 0 0.16 0"/>
<feBlend mode="normal" in2="effect1_backgroundBlur_9_1061" result="effect2_dropShadow_9_1061"/>
<feBlend mode="normal" in="SourceGraphic" in2="effect2_dropShadow_9_1061" result="shape"/>
</filter>
<linearGradient id="paint0_linear_9_1061" x1="252.404" y1="-19.3668" x2="136.062" y2="268.351" gradientUnits="userSpaceOnUse">
<stop stop-color="white" stop-opacity="0.4"/>
<stop offset="1" stop-color="white" stop-opacity="0.15"/>
</linearGradient>
<linearGradient id="paint1_linear_9_1061" x1="252.404" y1="-19.3668" x2="136.062" y2="268.351" gradientUnits="userSpaceOnUse">
<stop stop-color="white" stop-opacity="0.4"/>
<stop offset="1" stop-color="white" stop-opacity="0.15"/>
</linearGradient>
<radialGradient id="paint2_radial_9_1061" cx="0" cy="0" r="1" gradientUnits="userSpaceOnUse" gradientTransform="translate(188.525 109.646) rotate(-147.126) scale(272.31 193.291)">
<stop stop-color="white"/>
<stop offset="1" stop-color="white" stop-opacity="0"/>
</radialGradient>
<radialGradient id="paint3_radial_9_1061" cx="0" cy="0" r="1" gradientUnits="userSpaceOnUse" gradientTransform="translate(188.525 109.646) rotate(27.0424) scale(241.484 142.096)">
<stop stop-color="#35302E"/>
<stop offset="1" stop-color="#E3CD4B" stop-opacity="0"/>
</radialGradient>
<radialGradient id="paint4_radial_9_1061" cx="0" cy="0" r="1" gradientUnits="userSpaceOnUse" gradientTransform="translate(188.525 109.646) rotate(150.128) scale(226.54 146.242)">
<stop stop-color="white"/>
<stop offset="1" stop-color="#151515" stop-opacity="0"/>
</radialGradient>
<linearGradient id="paint5_linear_9_1061" x1="171.5" y1="-24" x2="175" y2="322.5" gradientUnits="userSpaceOnUse">
<stop stop-color="#94D2FF"/>
<stop offset="0.684689" stop-color="#382E3E"/>
</linearGradient>
<linearGradient id="paint6_linear_9_1061" x1="171.5" y1="-24" x2="175" y2="322.5" gradientUnits="userSpaceOnUse">
<stop stop-color="#94D2FF"/>
<stop offset="0.684689" stop-color="#382E3E"/>
</linearGradient>
<linearGradient id="paint7_linear_9_1061" x1="171.5" y1="-24" x2="175" y2="322.5" gradientUnits="userSpaceOnUse">
<stop stop-color="#94D2FF"/>
<stop offset="0.684689" stop-color="#382E3E"/>
</linearGradient>
<linearGradient id="paint8_linear_9_1061" x1="171.5" y1="-24" x2="175" y2="322.5" gradientUnits="userSpaceOnUse">
<stop stop-color="#94D2FF"/>
<stop offset="0.684689" stop-color="#382E3E"/>
</linearGradient>
<linearGradient id="paint9_linear_9_1061" x1="171.5" y1="-24" x2="175" y2="322.5" gradientUnits="userSpaceOnUse">
<stop stop-color="#94D2FF"/>
<stop offset="0.684689" stop-color="#382E3E"/>
</linearGradient>
<linearGradient id="paint10_linear_9_1061" x1="171.5" y1="-24" x2="175" y2="322.5" gradientUnits="userSpaceOnUse">
<stop stop-color="#94D2FF"/>
<stop offset="0.684689" stop-color="#382E3E"/>
</linearGradient>
<linearGradient id="paint11_linear_9_1061" x1="171.5" y1="-24" x2="175" y2="322.5" gradientUnits="userSpaceOnUse">
<stop stop-color="#94D2FF"/>
<stop offset="0.684689" stop-color="#382E3E"/>
</linearGradient>
<linearGradient id="paint12_linear_9_1061" x1="171.5" y1="-24" x2="175" y2="322.5" gradientUnits="userSpaceOnUse">
<stop stop-color="#94D2FF"/>
<stop offset="0.684689" stop-color="#382E3E"/>
</linearGradient>
<linearGradient id="paint13_linear_9_1061" x1="171.5" y1="-24" x2="175" y2="322.5" gradientUnits="userSpaceOnUse">
<stop stop-color="#94D2FF"/>
<stop offset="0.684689" stop-color="#382E3E"/>
</linearGradient>
<linearGradient id="paint14_linear_9_1061" x1="171.5" y1="-24" x2="175" y2="322.5" gradientUnits="userSpaceOnUse">
<stop stop-color="#94D2FF"/>
<stop offset="0.684689" stop-color="#382E3E"/>
</linearGradient>
<linearGradient id="paint15_linear_9_1061" x1="171.5" y1="-24" x2="175" y2="322.5" gradientUnits="userSpaceOnUse">
<stop stop-color="#94D2FF"/>
<stop offset="0.684689" stop-color="#382E3E"/>
</linearGradient>
<linearGradient id="paint16_linear_9_1061" x1="171.5" y1="-24" x2="175" y2="322.5" gradientUnits="userSpaceOnUse">
<stop stop-color="#94D2FF"/>
<stop offset="0.684689" stop-color="#382E3E"/>
</linearGradient>
<linearGradient id="paint17_linear_9_1061" x1="171.5" y1="-24" x2="175" y2="322.5" gradientUnits="userSpaceOnUse">
<stop stop-color="#94D2FF"/>
<stop offset="0.684689" stop-color="#382E3E"/>
</linearGradient>
<linearGradient id="paint18_linear_9_1061" x1="171.5" y1="-24" x2="175" y2="322.5" gradientUnits="userSpaceOnUse">
<stop stop-color="#94D2FF"/>
<stop offset="0.684689" stop-color="#382E3E"/>
</linearGradient>
<linearGradient id="paint19_linear_9_1061" x1="171.5" y1="-24" x2="175" y2="322.5" gradientUnits="userSpaceOnUse">
<stop stop-color="#94D2FF"/>
<stop offset="0.684689" stop-color="#382E3E"/>
</linearGradient>
<linearGradient id="paint20_linear_9_1061" x1="171.5" y1="-24" x2="175" y2="322.5" gradientUnits="userSpaceOnUse">
<stop stop-color="#94D2FF"/>
<stop offset="0.684689" stop-color="#382E3E"/>
</linearGradient>
<linearGradient id="paint21_linear_9_1061" x1="171.5" y1="-24" x2="175" y2="322.5" gradientUnits="userSpaceOnUse">
<stop stop-color="#94D2FF"/>
<stop offset="0.684689" stop-color="#382E3E"/>
</linearGradient>
<linearGradient id="paint22_linear_9_1061" x1="171.5" y1="-24" x2="175" y2="322.5" gradientUnits="userSpaceOnUse">
<stop stop-color="#94D2FF"/>
<stop offset="0.684689" stop-color="#382E3E"/>
</linearGradient>
<linearGradient id="paint23_linear_9_1061" x1="171.5" y1="-24" x2="175" y2="322.5" gradientUnits="userSpaceOnUse">
<stop stop-color="#94D2FF"/>
<stop offset="0.684689" stop-color="#382E3E"/>
</linearGradient>
<linearGradient id="paint24_linear_9_1061" x1="171.5" y1="-24" x2="175" y2="322.5" gradientUnits="userSpaceOnUse">
<stop stop-color="#94D2FF"/>
<stop offset="0.684689" stop-color="#382E3E"/>
</linearGradient>
<linearGradient id="paint25_linear_9_1061" x1="171.5" y1="-24" x2="175" y2="322.5" gradientUnits="userSpaceOnUse">
<stop stop-color="#94D2FF"/>
<stop offset="0.684689" stop-color="#382E3E"/>
</linearGradient>
<linearGradient id="paint26_linear_9_1061" x1="171.5" y1="-24" x2="175" y2="322.5" gradientUnits="userSpaceOnUse">
<stop stop-color="#94D2FF"/>
<stop offset="0.684689" stop-color="#382E3E"/>
</linearGradient>
<linearGradient id="paint27_linear_9_1061" x1="171.5" y1="-24" x2="175" y2="322.5" gradientUnits="userSpaceOnUse">
<stop stop-color="#94D2FF"/>
<stop offset="0.684689" stop-color="#382E3E"/>
</linearGradient>
<linearGradient id="paint28_linear_9_1061" x1="171.5" y1="-24" x2="175" y2="322.5" gradientUnits="userSpaceOnUse">
<stop stop-color="#94D2FF"/>
<stop offset="0.684689" stop-color="#382E3E"/>
</linearGradient>
<linearGradient id="paint29_linear_9_1061" x1="171.5" y1="-24" x2="175" y2="322.5" gradientUnits="userSpaceOnUse">
<stop stop-color="#94D2FF"/>
<stop offset="0.684689" stop-color="#382E3E"/>
</linearGradient>
<linearGradient id="paint30_linear_9_1061" x1="171.5" y1="-24" x2="175" y2="322.5" gradientUnits="userSpaceOnUse">
<stop stop-color="#94D2FF"/>
<stop offset="0.684689" stop-color="#382E3E"/>
</linearGradient>
<linearGradient id="paint31_linear_9_1061" x1="171.5" y1="-24" x2="175" y2="322.5" gradientUnits="userSpaceOnUse">
<stop stop-color="#94D2FF"/>
<stop offset="0.684689" stop-color="#382E3E"/>
</linearGradient>
<linearGradient id="paint32_linear_9_1061" x1="171.5" y1="-24" x2="175" y2="322.5" gradientUnits="userSpaceOnUse">
<stop stop-color="#94D2FF"/>
<stop offset="0.684689" stop-color="#382E3E"/>
</linearGradient>
<linearGradient id="paint33_linear_9_1061" x1="171.5" y1="-24" x2="175" y2="322.5" gradientUnits="userSpaceOnUse">
<stop stop-color="#94D2FF"/>
<stop offset="0.684689" stop-color="#382E3E"/>
</linearGradient>
<linearGradient id="paint34_linear_9_1061" x1="171.5" y1="-24" x2="175" y2="322.5" gradientUnits="userSpaceOnUse">
<stop stop-color="#94D2FF"/>
<stop offset="0.684689" stop-color="#382E3E"/>
</linearGradient>
<linearGradient id="paint35_linear_9_1061" x1="171.5" y1="-24" x2="175" y2="322.5" gradientUnits="userSpaceOnUse">
<stop stop-color="#94D2FF"/>
<stop offset="0.684689" stop-color="#382E3E"/>
</linearGradient>
<linearGradient id="paint36_linear_9_1061" x1="171.5" y1="-24" x2="175" y2="322.5" gradientUnits="userSpaceOnUse">
<stop stop-color="#94D2FF"/>
<stop offset="0.684689" stop-color="#382E3E"/>
</linearGradient>
<linearGradient id="paint37_linear_9_1061" x1="171.5" y1="-24" x2="175" y2="322.5" gradientUnits="userSpaceOnUse">
<stop stop-color="#94D2FF"/>
<stop offset="0.684689" stop-color="#382E3E"/>
</linearGradient>
<linearGradient id="paint38_linear_9_1061" x1="171.5" y1="-24" x2="175" y2="322.5" gradientUnits="userSpaceOnUse">
<stop stop-color="#94D2FF"/>
<stop offset="0.684689" stop-color="#382E3E"/>
</linearGradient>
<linearGradient id="paint39_linear_9_1061" x1="171.5" y1="-24" x2="175" y2="322.5" gradientUnits="userSpaceOnUse">
<stop stop-color="#94D2FF"/>
<stop offset="0.684689" stop-color="#382E3E"/>
</linearGradient>
<linearGradient id="paint40_linear_9_1061" x1="171.5" y1="-24" x2="175" y2="322.5" gradientUnits="userSpaceOnUse">
<stop stop-color="#94D2FF"/>
<stop offset="0.684689" stop-color="#382E3E"/>
</linearGradient>
<linearGradient id="paint41_linear_9_1061" x1="171.5" y1="-24" x2="175" y2="322.5" gradientUnits="userSpaceOnUse">
<stop stop-color="#94D2FF"/>
<stop offset="0.684689" stop-color="#382E3E"/>
</linearGradient>
<linearGradient id="paint42_linear_9_1061" x1="171.5" y1="-24" x2="175" y2="322.5" gradientUnits="userSpaceOnUse">
<stop stop-color="#94D2FF"/>
<stop offset="0.684689" stop-color="#382E3E"/>
</linearGradient>
<linearGradient id="paint43_linear_9_1061" x1="188.561" y1="216.254" x2="188.561" y2="110.893" gradientUnits="userSpaceOnUse">
<stop stop-color="#044FBF"/>
<stop offset="0.99" stop-color="#0068CF"/>
</linearGradient>
<linearGradient id="paint44_linear_9_1061" x1="188.561" y1="216.254" x2="188.561" y2="110.893" gradientUnits="userSpaceOnUse">
<stop stop-color="#044FBF"/>
<stop offset="0.99" stop-color="#0068CF"/>
</linearGradient>
</defs>
</svg>
