<svg width="48" height="48" viewBox="0 0 48 48" fill="none" xmlns="http://www.w3.org/2000/svg">
<mask id="mask0_272_9276" style="mask-type:alpha" maskUnits="userSpaceOnUse" x="0" y="0" width="48" height="48">
<circle cx="23.8299" cy="23.8299" r="23.8299" fill="#D9D9D9"/>
</mask>
<g mask="url(#mask0_272_9276)">
<g filter="url(#filter0_d_272_9276)">
<circle cx="23.8299" cy="23.8299" r="23.8299" fill="url(#paint0_linear_272_9276)"/>
</g>
<path d="M36.3605 26.2894C36.3605 28.8478 34.2706 30.9016 31.7483 30.9016H18.4881C15.6054 30.9016 13.2993 28.5955 13.2993 25.7129C13.2993 23.4788 14.7406 21.533 16.7585 20.8484C16.7585 20.7403 16.7585 20.6322 16.7585 20.5241C16.7585 17.3532 19.3169 14.7588 22.5238 14.7588C24.6498 14.7588 26.5235 15.9479 27.4964 17.6775C28.0369 17.2811 28.7215 17.0649 29.4422 17.0649C31.3519 17.0649 32.9014 18.6143 32.9014 20.5241C32.9014 20.9925 32.7933 21.3889 32.6491 21.7853C34.7751 22.2177 36.3605 24.0914 36.3605 26.2894Z" fill="white"/>
<path d="M29.4422 21.6738H48.6599V30.9016H29.4422V21.6738Z" fill="white"/>
<g filter="url(#filter1_d_272_9276)">
<circle cx="23.83" cy="23.83" r="17.83" stroke="white" stroke-width="2"/>
</g>
</g>
<defs>
<filter id="filter0_d_272_9276" x="-33.8231" y="-23.0612" width="130.68" height="130.681" filterUnits="userSpaceOnUse" color-interpolation-filters="sRGB">
<feFlood flood-opacity="0" result="BackgroundImageFix"/>
<feColorMatrix in="SourceAlpha" type="matrix" values="0 0 0 0 0 0 0 0 0 0 0 0 0 0 0 0 0 0 127 0" result="hardAlpha"/>
<feOffset dx="7.68708" dy="18.449"/>
<feGaussianBlur stdDeviation="20.7551"/>
<feColorMatrix type="matrix" values="0 0 0 0 0 0 0 0 0 0 0 0 0 0 0 0 0 0 0.04 0"/>
<feBlend mode="normal" in2="BackgroundImageFix" result="effect1_dropShadow_272_9276"/>
<feBlend mode="normal" in="SourceGraphic" in2="effect1_dropShadow_272_9276" result="shape"/>
</filter>
<filter id="filter1_d_272_9276" x="-28.8231" y="-18.0612" width="120.681" height="120.681" filterUnits="userSpaceOnUse" color-interpolation-filters="sRGB">
<feFlood flood-opacity="0" result="BackgroundImageFix"/>
<feColorMatrix in="SourceAlpha" type="matrix" values="0 0 0 0 0 0 0 0 0 0 0 0 0 0 0 0 0 0 127 0" result="hardAlpha"/>
<feOffset dx="7.68708" dy="18.449"/>
<feGaussianBlur stdDeviation="20.7551"/>
<feColorMatrix type="matrix" values="0 0 0 0 0 0 0 0 0 0 0 0 0 0 0 0 0 0 0.04 0"/>
<feBlend mode="normal" in2="BackgroundImageFix" result="effect1_dropShadow_272_9276"/>
<feBlend mode="normal" in="SourceGraphic" in2="effect1_dropShadow_272_9276" result="shape"/>
</filter>
<linearGradient id="paint0_linear_272_9276" x1="0" y1="23.8299" x2="47.6599" y2="23.8299" gradientUnits="userSpaceOnUse">
<stop stop-color="#4776E6"/>
<stop offset="1" stop-color="#8E54E9"/>
</linearGradient>
</defs>
</svg>
