<svg width="48" height="45" viewBox="0 0 48 45" fill="none" xmlns="http://www.w3.org/2000/svg">
<rect x="0.933105" y="0.830078" width="46.6667" height="44" rx="6" fill="white"/>
<g clip-path="url(#clip0_272_9290)">
<path d="M18.076 14.4368V15.2203C21.2099 15.7426 23.6474 18.4848 23.6474 21.7493V23.2292C23.6474 25.1879 24.3003 27.1031 25.519 28.6701L26.1719 29.4535C26.4331 29.8018 26.4766 30.237 26.3025 30.5852C26.1284 30.9335 25.7802 31.1511 25.3885 31.1511H7.97775C7.54248 31.1511 7.19427 30.9335 7.02016 30.5852C6.84605 30.237 6.88958 29.8018 7.15074 29.4535L7.80364 28.6701C9.02239 27.1031 9.71882 25.1879 9.71882 23.2292V21.7493C9.71882 18.4848 12.1128 15.7426 15.2902 15.2203V14.4368C15.2902 13.6968 15.8996 13.0439 16.6831 13.0439C17.4231 13.0439 18.076 13.6968 18.076 14.4368ZM16.3349 17.2225C13.8103 17.2225 11.8081 19.2683 11.8081 21.7493V23.2292C11.8081 25.3185 11.1987 27.3207 10.067 29.0618H23.2557C22.124 27.3207 21.5581 25.3185 21.5581 23.2292V21.7493C21.5581 19.2683 19.5123 17.2225 17.0313 17.2225H16.3349ZM19.4688 32.5439C19.4688 33.2839 19.1641 34.0239 18.6418 34.5462C18.1195 35.0685 17.3795 35.3297 16.6831 35.3297C15.9432 35.3297 15.2032 35.0685 14.6809 34.5462C14.1586 34.0239 13.8974 33.2839 13.8974 32.5439H19.4688Z" fill="#969BA0"/>
<circle cx="31.0761" cy="20.3539" r="9.90476" fill="#D20303" stroke="white" stroke-width="1.2381"/>
<path d="M29.3515 22.5795C30.0647 21.9629 30.6255 21.4578 31.0341 21.0641C31.4501 20.6629 31.7955 20.2469 32.0704 19.8161C32.3452 19.3852 32.4827 18.9544 32.4827 18.5235C32.4827 18.0778 32.375 17.7286 32.1595 17.4761C31.9515 17.2235 31.621 17.0972 31.1678 17.0972C30.7295 17.0972 30.3878 17.2384 30.1427 17.5206C29.905 17.7955 29.7787 18.1669 29.7638 18.6349H28.5381C28.5604 17.7881 28.813 17.1418 29.2958 16.6961C29.7861 16.2429 30.4064 16.0164 31.1567 16.0164C31.9664 16.0164 32.5978 16.2392 33.051 16.6849C33.5115 17.1306 33.7418 17.7249 33.7418 18.4678C33.7418 19.0026 33.6044 19.5189 33.3295 20.0166C33.0621 20.5069 32.739 20.9489 32.3601 21.3426C31.9887 21.7289 31.5132 22.1784 30.9338 22.6909L30.4324 23.1366H33.9647V24.1952H28.5492V23.2704L29.3515 22.5795Z" fill="white"/>
</g>
<defs>
<clipPath id="clip0_272_9290">
<rect width="34.6667" height="26" fill="white" transform="translate(6.93311 9.83008)"/>
</clipPath>
</defs>
</svg>
