<svg width="13" height="14" viewBox="0 0 13 14" fill="none" xmlns="http://www.w3.org/2000/svg">
<path d="M12.4558 5.19559L8.80613 4.63889L7.17463 1.16747C7.13007 1.07243 7.05676 0.995485 6.9662 0.948717C6.73908 0.831042 6.46309 0.929105 6.34953 1.16747L4.71803 4.63889L1.06836 5.19559C0.967734 5.21068 0.875737 5.26046 0.805302 5.33589C0.72015 5.42775 0.673228 5.55133 0.674845 5.67948C0.676462 5.80763 0.726487 5.92986 0.813927 6.01932L3.45452 8.72132L2.83066 12.5367C2.81604 12.6255 2.82539 12.7168 2.85768 12.8002C2.88996 12.8837 2.94388 12.956 3.01332 13.0089C3.08276 13.0618 3.16494 13.0933 3.25054 13.0997C3.33615 13.1061 3.42175 13.0872 3.49764 13.0451L6.76208 11.2438L10.0265 13.0451C10.1156 13.0949 10.2191 13.1115 10.3183 13.0934C10.5684 13.0482 10.7366 12.7992 10.6935 12.5367L10.0696 8.72132L12.7102 6.01932C12.7821 5.94539 12.8295 5.84884 12.8439 5.74323C12.8827 5.47922 12.7074 5.23481 12.4558 5.19559Z" fill="#F8C100"/>
</svg>
