<svg width="14" height="14" viewBox="0 0 14 14" fill="none" xmlns="http://www.w3.org/2000/svg">
<path d="M8.77265 4.98517L8.68613 4.80108L7.05463 1.32966L7.05447 1.32934C7.04446 1.30798 7.02979 1.29447 7.01633 1.28752L7.01588 1.28728C6.9998 1.27895 6.98402 1.27821 6.96792 1.28393C6.95145 1.28977 6.93233 1.30362 6.91917 1.33086C6.91907 1.33106 6.91897 1.33127 6.91887 1.33147L5.28823 4.80108L5.20171 4.98517L5.00063 5.01585L1.35095 5.57254L1.34999 5.57269C1.33848 5.57441 1.32384 5.58056 1.30958 5.59562C1.29285 5.61394 1.28081 5.64209 1.28122 5.67467C1.28164 5.70753 1.29459 5.73526 1.31171 5.75278L1.31173 5.75281L3.95232 8.45481L4.08703 8.59265L4.05593 8.78285L3.43208 12.5982L3.432 12.5987C3.42838 12.6207 3.43082 12.643 3.4384 12.6626C3.44596 12.6822 3.45758 12.6965 3.46958 12.7056L3.23842 13.0089L3.46958 12.7056C3.48139 12.7146 3.49341 12.7186 3.5041 12.7194C3.51473 12.7202 3.5263 12.718 3.53792 12.7116L3.53851 12.7113L6.80295 10.9099L6.98718 10.8083L7.1714 10.9099L10.4358 12.7113L10.4376 12.7122C10.4485 12.7184 10.462 12.7207 10.475 12.7183L10.4755 12.7182C10.5061 12.7127 10.5542 12.6706 10.5423 12.5985L10.5423 12.5982L9.91843 8.78285L9.88733 8.59265L10.022 8.45481L8.77265 4.98517ZM8.77265 4.98517L8.97373 5.01585M8.77265 4.98517L8.97373 5.01585M8.97373 5.01585L12.6222 5.57235L8.97373 5.01585Z" stroke="#CCCCCC" stroke-width="0.762624"/>
</svg>
