<svg width="11" height="13" viewBox="0 0 11 13" fill="none" xmlns="http://www.w3.org/2000/svg">
<path d="M10.1385 7.94951C10.4483 7.94951 10.7104 8.21166 10.7104 8.52147V10.2374C10.7104 11.5243 9.68565 12.5252 8.42255 12.5252H2.32156C1.03463 12.5252 0.0336914 11.5243 0.0336914 10.2374V8.52147C0.0336914 8.21166 0.272011 7.94951 0.605659 7.94951C0.915475 7.94951 1.17763 8.21166 1.17763 8.52147V10.2374C1.17763 10.8808 1.6781 11.3813 2.32156 11.3813H8.42255C9.04218 11.3813 9.56649 10.8808 9.56649 10.2374V8.52147C9.56649 8.21166 9.80481 7.94951 10.1385 7.94951ZM4.96691 0.490094L1.72576 3.51676C1.48744 3.75508 1.48744 4.11256 1.70193 4.35088C1.91642 4.5892 2.2739 4.5892 2.51222 4.37471L4.80009 2.22983V8.14016C4.80009 8.47381 5.03841 8.71213 5.37206 8.71213C5.68187 8.71213 5.94402 8.47381 5.94402 8.16399V2.22983L8.20806 4.37471C8.44638 4.5892 8.80386 4.5892 9.01835 4.35088C9.11368 4.23172 9.18517 4.08872 9.18517 3.94573C9.18517 3.80274 9.11368 3.65975 8.99452 3.54059L5.75337 0.513926C5.53888 0.275606 5.1814 0.275606 4.96691 0.490094Z" fill="#C4C4C4"/>
</svg>
