<svg width="320" height="470" viewBox="0 0 320 470" fill="none" xmlns="http://www.w3.org/2000/svg">
<g opacity="0.5">
<path d="M110.389 458.882C109.97 458.894 109.563 459.027 109.218 459.266C108.873 459.505 108.605 459.839 108.446 460.227C108.287 460.615 108.245 461.041 108.323 461.452C108.402 461.864 108.598 462.244 108.889 462.547L109.5 463C110.055 463.52 111.671 463.363 112.431 463.38H202.401C203.148 463.361 209.694 463.234 210.5 463L211.236 462.547C211.529 462.242 211.726 461.858 211.803 461.442C211.88 461.027 211.834 460.598 211.67 460.208C211.506 459.818 211.231 459.485 210.88 459.25C210.529 459.014 210.117 458.886 209.694 458.882H110.389Z" fill="url(#paint0_linear_8_1048)"/>
<path d="M209.569 14.1192C209.992 14.1266 210.408 14.0075 210.763 13.7772C211.118 13.5469 211.396 13.216 211.561 12.8268C211.727 12.4376 211.773 12.0078 211.692 11.5925C211.612 11.1772 211.41 10.7954 211.111 10.4958L206.944 6.33103C206.682 6.06597 206.371 5.85574 206.027 5.71269C205.684 5.56965 205.315 5.49668 204.943 5.49807H115.015C114.251 5.49796 113.518 5.79701 112.973 6.33103L108.806 10.4958C108.509 10.7929 108.308 11.1709 108.226 11.5822C108.145 11.9936 108.187 12.4198 108.347 12.8073C108.508 13.1948 108.779 13.5261 109.128 13.7596C109.476 13.9931 109.886 14.1182 110.306 14.1192H209.569Z" fill="url(#paint1_linear_8_1048)"/>
<path d="M306.248 17.3687C308.25 17.3687 309.874 15.7465 309.874 13.7453C309.874 11.7442 308.25 10.1219 306.248 10.1219C304.246 10.1219 302.623 11.7442 302.623 13.7453C302.623 15.7465 304.246 17.3687 306.248 17.3687Z" fill="url(#paint2_linear_8_1048)"/>
<path d="M13.7515 459.879C15.7538 459.879 17.377 458.257 17.377 456.256C17.377 454.254 15.7538 452.632 13.7515 452.632C11.7492 452.632 10.1261 454.254 10.1261 456.256C10.1261 458.257 11.7492 459.879 13.7515 459.879Z" fill="url(#paint3_linear_8_1048)"/>
<path d="M306.248 459.879C308.25 459.879 309.874 458.257 309.874 456.256C309.874 454.254 308.25 452.632 306.248 452.632C304.246 452.632 302.623 454.254 302.623 456.256C302.623 458.257 304.246 459.879 306.248 459.879Z" fill="url(#paint4_linear_8_1048)"/>
<path d="M13.7515 17.3687C15.7538 17.3687 17.377 15.7465 17.377 13.7453C17.377 11.7442 15.7538 10.1219 13.7515 10.1219C11.7492 10.1219 10.1261 11.7442 10.1261 13.7453C10.1261 15.7465 11.7492 17.3687 13.7515 17.3687Z" fill="url(#paint5_linear_8_1048)"/>
<path d="M313.541 178.796C313.541 179.523 313.325 180.233 312.92 180.836C312.515 181.44 311.94 181.91 311.267 182.186C310.595 182.462 309.855 182.532 309.143 182.387C308.43 182.242 307.777 181.889 307.266 181.372C306.755 180.856 306.409 180.199 306.272 179.485C306.135 178.771 306.214 178.033 306.498 177.364C306.782 176.695 307.258 176.126 307.867 175.728C308.475 175.331 309.188 175.123 309.915 175.131C310.395 175.131 310.87 175.226 311.312 175.411C311.755 175.595 312.157 175.866 312.494 176.207C312.831 176.548 313.097 176.952 313.277 177.397C313.457 177.841 313.546 178.317 313.541 178.796Z" fill="url(#paint6_linear_8_1048)"/>
<path d="M6.45886 291.246C6.46708 290.531 6.68668 289.835 7.09002 289.245C7.49336 288.654 8.06244 288.196 8.72559 287.928C9.38874 287.661 10.1163 287.595 10.8168 287.739C11.5173 287.884 12.1595 288.232 12.6624 288.74C13.1652 289.249 13.5063 289.894 13.6429 290.596C13.7794 291.298 13.7053 292.024 13.4297 292.684C13.1541 293.344 12.6894 293.907 12.0942 294.303C11.4989 294.7 10.7996 294.911 10.0843 294.911C9.60468 294.911 9.12992 294.816 8.68731 294.631C8.24471 294.447 7.84308 294.176 7.50587 293.835C7.16867 293.494 6.9026 293.09 6.72287 292.646C6.54314 292.201 6.45334 291.725 6.45886 291.246Z" fill="url(#paint7_linear_8_1048)"/>
<path d="M313.541 291.247C313.444 290.347 313.019 289.515 312.346 288.911C311.672 288.306 310.799 287.972 309.894 287.972C308.989 287.972 308.116 288.306 307.443 288.911C306.77 289.515 306.345 290.347 306.248 291.247C306.193 291.758 306.247 292.275 306.405 292.764C306.563 293.254 306.823 293.704 307.167 294.087C307.511 294.469 307.931 294.775 308.401 294.984C308.871 295.194 309.38 295.302 309.894 295.302C310.409 295.302 310.918 295.194 311.388 294.984C311.858 294.775 312.278 294.469 312.622 294.087C312.966 293.704 313.226 293.254 313.384 292.764C313.542 292.275 313.596 291.758 313.541 291.247Z" fill="url(#paint8_linear_8_1048)"/>
<path d="M6.84924 179.144C6.85746 179.859 7.07706 180.555 7.4804 181.146C7.88374 181.736 8.45282 182.194 9.11597 182.462C9.77912 182.73 10.5067 182.795 11.2072 182.651C11.9077 182.507 12.5499 182.158 13.0527 181.65C13.5556 181.141 13.8967 180.496 14.0333 179.794C14.1698 179.092 14.0957 178.366 13.8201 177.706C13.5445 177.047 13.0798 176.483 12.4845 176.087C11.8893 175.691 11.19 175.479 10.4747 175.479C9.99506 175.479 9.5203 175.574 9.07769 175.759C8.63509 175.943 8.23346 176.214 7.89626 176.555C7.55905 176.896 7.29298 177.3 7.11325 177.745C6.93352 178.189 6.84372 178.665 6.84924 179.144Z" fill="url(#paint9_linear_8_1048)"/>
<path d="M313.541 188.959C313.549 189.687 313.34 190.401 312.94 191.01C312.54 191.619 311.968 192.096 311.297 192.378C310.625 192.661 309.884 192.737 309.169 192.597C308.453 192.457 307.796 192.107 307.281 191.592C306.766 191.077 306.415 190.42 306.275 189.705C306.135 188.99 306.211 188.25 306.494 187.578C306.777 186.907 307.253 186.335 307.863 185.936C308.472 185.536 309.187 185.327 309.915 185.335C310.874 185.346 311.789 185.731 312.467 186.409C313.145 187.086 313.53 188.001 313.541 188.959Z" fill="url(#paint10_linear_8_1048)"/>
<path d="M6.45887 280.959C6.45887 280.242 6.67157 279.542 7.06994 278.946C7.46831 278.35 8.03453 277.886 8.69699 277.611C9.35946 277.337 10.0884 277.265 10.7917 277.405C11.4949 277.545 12.141 277.89 12.648 278.397C13.155 278.904 13.5003 279.549 13.6402 280.252C13.7801 280.955 13.7083 281.683 13.4339 282.345C13.1595 283.008 12.6948 283.574 12.0986 283.972C11.5024 284.37 10.8014 284.582 10.0843 284.582C9.12279 284.582 8.20068 284.201 7.52077 283.521C6.84086 282.842 6.45887 281.92 6.45887 280.959Z" fill="url(#paint11_linear_8_1048)"/>
<path d="M313.541 280.958C313.549 280.23 313.34 279.516 312.94 278.907C312.54 278.298 311.968 277.822 311.297 277.539C310.625 277.256 309.884 277.18 309.169 277.32C308.453 277.46 307.796 277.81 307.281 278.325C306.766 278.841 306.415 279.497 306.275 280.212C306.135 280.927 306.211 281.667 306.494 282.339C306.777 283.01 307.253 283.582 307.863 283.982C308.472 284.381 309.187 284.59 309.915 284.582C310.877 284.582 311.799 284.2 312.479 283.521C313.159 282.841 313.541 281.919 313.541 280.958Z" fill="url(#paint12_linear_8_1048)"/>
<path d="M6.45887 188.959C6.45887 189.675 6.67157 190.376 7.06994 190.972C7.46831 191.567 8.03453 192.032 8.69699 192.306C9.35946 192.58 10.0884 192.652 10.7917 192.512C11.4949 192.372 12.141 192.027 12.648 191.521C13.155 191.014 13.5003 190.368 13.6402 189.665C13.7801 188.963 13.7083 188.234 13.4339 187.572C13.1595 186.91 12.6948 186.344 12.0986 185.946C11.5024 185.548 10.8014 185.335 10.0843 185.335C9.12615 185.346 8.2103 185.731 7.53272 186.408C6.85515 187.086 6.4697 188.001 6.45887 188.959Z" fill="url(#paint13_linear_8_1048)"/>
<path d="M313.541 199.161C313.444 200.061 313.019 200.893 312.346 201.497C311.672 202.102 310.799 202.436 309.894 202.436C308.989 202.436 308.116 202.102 307.443 201.497C306.77 200.893 306.345 200.061 306.248 199.161C306.193 198.65 306.247 198.133 306.405 197.644C306.563 197.154 306.823 196.704 307.167 196.321C307.511 195.939 307.931 195.633 308.401 195.424C308.871 195.214 309.38 195.106 309.894 195.106C310.409 195.106 310.918 195.214 311.388 195.424C311.858 195.633 312.278 195.939 312.622 196.321C312.966 196.704 313.226 197.154 313.384 197.644C313.542 198.133 313.596 198.65 313.541 199.161Z" fill="url(#paint14_linear_8_1048)"/>
<path d="M6.45887 270.881C6.45887 270.164 6.67157 269.463 7.06994 268.868C7.46831 268.272 8.03453 267.807 8.69699 267.533C9.35946 267.259 10.0884 267.187 10.7917 267.327C11.4949 267.467 12.141 267.812 12.648 268.318C13.155 268.825 13.5003 269.471 13.6402 270.174C13.7801 270.877 13.7083 271.605 13.4339 272.267C13.1595 272.929 12.6948 273.495 12.0986 273.893C11.5024 274.291 10.8014 274.504 10.0843 274.504C9.12279 274.504 8.20068 274.122 7.52077 273.443C6.84086 272.763 6.45887 271.842 6.45887 270.881Z" fill="url(#paint15_linear_8_1048)"/>
<path d="M313.541 270.88C313.549 270.152 313.34 269.437 312.94 268.828C312.54 268.219 311.968 267.743 311.297 267.461C310.625 267.178 309.884 267.102 309.169 267.242C308.453 267.382 307.796 267.732 307.281 268.247C306.766 268.762 306.415 269.419 306.275 270.134C306.135 270.849 306.211 271.589 306.494 272.26C306.777 272.932 307.253 273.504 307.863 273.903C308.472 274.303 309.187 274.512 309.915 274.503C310.877 274.503 311.799 274.122 312.479 273.442C313.159 272.763 313.541 271.841 313.541 270.88Z" fill="url(#paint16_linear_8_1048)"/>
<path d="M6.45886 199.162C6.46708 199.877 6.68668 200.573 7.09002 201.164C7.49336 201.754 8.06244 202.212 8.72559 202.48C9.38874 202.748 10.1163 202.813 10.8168 202.669C11.5173 202.524 12.1595 202.176 12.6624 201.668C13.1652 201.159 13.5063 200.514 13.6429 199.812C13.7794 199.11 13.7053 198.384 13.4297 197.724C13.1541 197.065 12.6894 196.501 12.0942 196.105C11.4989 195.709 10.7996 195.497 10.0843 195.497C9.60468 195.497 9.12992 195.592 8.68731 195.777C8.24471 195.961 7.84308 196.232 7.50587 196.573C7.16867 196.914 6.9026 197.318 6.72287 197.763C6.54314 198.207 6.45334 198.683 6.45886 199.162Z" fill="url(#paint17_linear_8_1048)"/>
<path d="M313.541 209.365C313.541 210.092 313.325 210.802 312.92 211.406C312.515 212.009 311.94 212.479 311.267 212.755C310.595 213.031 309.855 213.101 309.143 212.956C308.43 212.812 307.777 212.458 307.266 211.942C306.755 211.425 306.409 210.768 306.272 210.054C306.135 209.341 306.214 208.602 306.498 207.933C306.782 207.265 307.258 206.695 307.867 206.297C308.475 205.9 309.188 205.692 309.915 205.7C310.395 205.7 310.87 205.795 311.312 205.98C311.755 206.164 312.157 206.435 312.494 206.776C312.831 207.117 313.097 207.521 313.277 207.966C313.457 208.41 313.546 208.886 313.541 209.365Z" fill="url(#paint18_linear_8_1048)"/>
<path d="M6.45886 260.677C6.46708 259.962 6.68668 259.266 7.09002 258.675C7.49336 258.085 8.06244 257.627 8.72559 257.359C9.38874 257.091 10.1163 257.026 10.8168 257.17C11.5173 257.315 12.1595 257.663 12.6624 258.171C13.1652 258.68 13.5063 259.325 13.6429 260.027C13.7794 260.729 13.7053 261.455 13.4297 262.115C13.1541 262.774 12.6894 263.338 12.0942 263.734C11.4989 264.131 10.7996 264.342 10.0843 264.342C9.60468 264.342 9.12992 264.247 8.68731 264.062C8.24471 263.878 7.84308 263.607 7.50587 263.266C7.16867 262.925 6.9026 262.521 6.72287 262.076C6.54314 261.632 6.45334 261.156 6.45886 260.677Z" fill="url(#paint19_linear_8_1048)"/>
<path d="M313.541 260.677C313.541 259.95 313.325 259.24 312.92 258.636C312.515 258.033 311.94 257.563 311.267 257.287C310.595 257.011 309.855 256.941 309.143 257.085C308.43 257.23 307.777 257.583 307.266 258.1C306.755 258.617 306.409 259.274 306.272 259.987C306.135 260.701 306.214 261.439 306.498 262.108C306.782 262.777 307.258 263.347 307.867 263.744C308.475 264.142 309.188 264.35 309.915 264.342C310.395 264.342 310.87 264.247 311.312 264.062C311.755 263.877 312.157 263.607 312.494 263.266C312.831 262.925 313.097 262.52 313.277 262.076C313.457 261.632 313.546 261.156 313.541 260.677Z" fill="url(#paint20_linear_8_1048)"/>
<path d="M6.45886 209.366C6.46708 210.081 6.68668 210.778 7.09002 211.368C7.49336 211.958 8.06244 212.416 8.72559 212.684C9.38874 212.952 10.1163 213.018 10.8168 212.873C11.5173 212.729 12.1595 212.381 12.6624 211.872C13.1652 211.364 13.5063 210.718 13.6429 210.016C13.7794 209.315 13.7053 208.588 13.4297 207.929C13.1541 207.269 12.6894 206.706 12.0942 206.309C11.4989 205.913 10.7996 205.701 10.0843 205.701C9.60468 205.701 9.12992 205.796 8.68731 205.981C8.24471 206.166 7.84308 206.436 7.50587 206.777C7.16867 207.118 6.9026 207.523 6.72287 207.967C6.54314 208.411 6.45334 208.887 6.45886 209.366Z" fill="url(#paint21_linear_8_1048)"/>
<path d="M313.541 219.528C313.549 220.256 313.34 220.97 312.94 221.58C312.54 222.189 311.968 222.665 311.297 222.947C310.625 223.23 309.884 223.306 309.169 223.166C308.453 223.026 307.796 222.676 307.281 222.161C306.766 221.646 306.415 220.989 306.275 220.274C306.135 219.559 306.211 218.819 306.494 218.148C306.777 217.476 307.253 216.904 307.863 216.505C308.472 216.105 309.187 215.896 309.915 215.904C310.874 215.915 311.789 216.3 312.467 216.978C313.145 217.655 313.53 218.57 313.541 219.528Z" fill="url(#paint22_linear_8_1048)"/>
<path d="M6.45887 250.514C6.45887 249.798 6.67157 249.097 7.06994 248.501C7.46831 247.905 8.03453 247.441 8.69699 247.167C9.35946 246.893 10.0884 246.821 10.7917 246.961C11.4949 247.1 12.141 247.445 12.648 247.952C13.155 248.459 13.5003 249.105 13.6402 249.807C13.7801 250.51 13.7083 251.239 13.4339 251.901C13.1595 252.563 12.6948 253.129 12.0986 253.527C11.5024 253.925 10.8014 254.138 10.0843 254.138C9.12279 254.138 8.20068 253.756 7.52077 253.076C6.84086 252.397 6.45887 251.475 6.45887 250.514Z" fill="url(#paint23_linear_8_1048)"/>
<path d="M313.541 250.514C313.549 249.785 313.34 249.071 312.94 248.462C312.54 247.853 311.968 247.377 311.297 247.094C310.625 246.812 309.884 246.736 309.169 246.876C308.453 247.016 307.796 247.366 307.281 247.881C306.766 248.396 306.415 249.053 306.275 249.768C306.135 250.482 306.211 251.223 306.494 251.894C306.777 252.565 307.253 253.137 307.863 253.537C308.472 253.936 309.187 254.145 309.915 254.137C310.877 254.137 311.799 253.755 312.479 253.076C313.159 252.396 313.541 251.475 313.541 250.514Z" fill="url(#paint24_linear_8_1048)"/>
<path d="M6.45887 219.528C6.45887 220.244 6.67157 220.945 7.06994 221.541C7.46831 222.136 8.03453 222.601 8.69699 222.875C9.35946 223.149 10.0884 223.221 10.7917 223.081C11.4949 222.942 12.141 222.596 12.648 222.09C13.155 221.583 13.5003 220.937 13.6402 220.234C13.7801 219.532 13.7083 218.803 13.4339 218.141C13.1595 217.479 12.6948 216.913 12.0986 216.515C11.5024 216.117 10.8014 215.904 10.0843 215.904C9.12615 215.915 8.2103 216.3 7.53272 216.977C6.85515 217.655 6.4697 218.57 6.45887 219.528Z" fill="url(#paint25_linear_8_1048)"/>
<path d="M313.541 229.732C313.444 230.631 313.019 231.463 312.346 232.068C311.672 232.672 310.799 233.007 309.894 233.007C308.989 233.007 308.116 232.672 307.443 232.068C306.77 231.463 306.345 230.631 306.248 229.732C306.193 229.221 306.247 228.704 306.405 228.214C306.563 227.725 306.823 227.275 307.167 226.892C307.511 226.51 307.931 226.204 308.401 225.994C308.871 225.785 309.38 225.677 309.894 225.677C310.409 225.677 310.918 225.785 311.388 225.994C311.858 226.204 312.278 226.51 312.622 226.892C312.966 227.275 313.226 227.725 313.384 228.214C313.542 228.704 313.596 229.221 313.541 229.732Z" fill="url(#paint26_linear_8_1048)"/>
<path d="M6.45887 240.31C6.45887 239.593 6.67157 238.893 7.06994 238.297C7.46831 237.701 8.03453 237.237 8.69699 236.962C9.35946 236.688 10.0884 236.616 10.7917 236.756C11.4949 236.896 12.141 237.241 12.648 237.748C13.155 238.255 13.5003 238.9 13.6402 239.603C13.7801 240.306 13.7083 241.034 13.4339 241.697C13.1595 242.359 12.6948 242.924 12.0986 243.323C11.5024 243.721 10.8014 243.933 10.0843 243.933C9.12279 243.933 8.20068 243.552 7.52077 242.872C6.84086 242.193 6.45887 241.271 6.45887 240.31Z" fill="url(#paint27_linear_8_1048)"/>
<path d="M313.541 240.311C313.549 239.583 313.34 238.868 312.94 238.259C312.54 237.65 311.968 237.174 311.297 236.892C310.625 236.609 309.884 236.533 309.169 236.673C308.453 236.813 307.796 237.163 307.281 237.678C306.766 238.193 306.415 238.85 306.275 239.565C306.135 240.28 306.211 241.02 306.494 241.691C306.777 242.363 307.253 242.935 307.863 243.334C308.472 243.734 309.187 243.943 309.915 243.934C310.877 243.934 311.799 243.553 312.479 242.873C313.159 242.194 313.541 241.272 313.541 240.311Z" fill="url(#paint28_linear_8_1048)"/>
<path d="M6.45886 229.731C6.46708 230.446 6.68668 231.142 7.09002 231.733C7.49336 232.323 8.06244 232.781 8.72559 233.049C9.38874 233.317 10.1163 233.383 10.8168 233.238C11.5173 233.094 12.1595 232.745 12.6624 232.237C13.1652 231.729 13.5063 231.083 13.6429 230.381C13.7794 229.679 13.7053 228.953 13.4297 228.293C13.1541 227.634 12.6894 227.07 12.0942 226.674C11.4989 226.278 10.7996 226.066 10.0843 226.066C9.60468 226.066 9.12992 226.161 8.68731 226.346C8.24471 226.531 7.84308 226.801 7.50587 227.142C7.16867 227.483 6.9026 227.887 6.72287 228.332C6.54314 228.776 6.45334 229.252 6.45886 229.731Z" fill="url(#paint29_linear_8_1048)"/>
</g>
<path opacity="0.3" d="M217.57 469.001H102.43C101.333 469.007 100.246 468.797 99.2302 468.382C98.2147 467.968 97.2911 467.357 96.5124 466.585L92.3452 462.42C91.6672 461.742 90.8614 461.205 89.9744 460.841C89.0874 460.476 88.1368 460.291 87.1777 460.296H24.5029C23.5439 460.291 22.5933 460.476 21.7063 460.841C20.8193 461.205 20.0135 461.742 19.3355 462.42V462.42C18.5567 463.192 17.6333 463.803 16.6178 464.218C15.6024 464.632 14.515 464.842 13.4181 464.836C12.3213 464.842 11.2339 464.632 10.2185 464.218C9.20302 463.803 8.27942 463.192 7.50065 462.42C6.7282 461.642 6.11705 460.719 5.70229 459.704C5.28753 458.689 5.07738 457.602 5.08372 456.506C5.08285 455.407 5.29964 454.319 5.72162 453.304C6.1436 452.289 6.76239 451.367 7.54236 450.592V450.592C8.8898 449.208 9.65113 447.359 9.66768 445.428V311.821C9.65113 309.89 8.8898 308.04 7.54236 306.656L3.37515 302.491C2.59518 301.717 1.97638 300.795 1.55441 299.78C1.13243 298.765 0.915635 297.677 0.916507 296.577V173.382C0.915635 172.283 1.13243 171.195 1.55441 170.18C1.97638 169.165 2.59518 168.243 3.37515 167.468L7.54236 163.303C8.901 161.927 9.66429 160.072 9.66768 158.139V24.5318C9.65984 22.5993 8.89722 20.7463 7.54236 19.3675V19.3675C6.76745 18.5939 6.15274 17.6752 5.73332 16.664C5.3139 15.6528 5.09796 14.5689 5.09796 13.4742C5.09796 12.3796 5.3139 11.2957 5.73332 10.2845C6.15274 9.2733 6.76745 8.35464 7.54236 7.58104C9.09819 6.01679 11.2113 5.1331 13.4181 5.1238C14.5179 5.12293 15.6069 5.3396 16.6225 5.76133C17.6381 6.18307 18.5602 6.80152 19.3355 7.58104V7.58104C20.0057 8.27228 20.8091 8.82056 21.6972 9.19279C22.5854 9.56502 23.5399 9.75346 24.5029 9.74674H87.2612C88.2242 9.75346 89.1786 9.56502 90.0667 9.19279C90.9549 8.82056 91.7583 8.27228 92.4285 7.58104L96.5957 3.41622C97.371 2.6367 98.2931 2.01825 99.3087 1.59652C100.324 1.17479 101.413 0.958116 102.513 0.958987H217.653C219.86 0.968286 221.973 1.85197 223.529 3.41622L227.696 7.58104C228.371 8.26656 229.175 8.81108 230.062 9.1829C230.949 9.55471 231.902 9.74638 232.864 9.74674H295.622C296.584 9.74871 297.537 9.5581 298.425 9.18615C299.312 8.8142 300.116 8.26844 300.789 7.58104V7.58104C301.563 6.80713 302.483 6.19323 303.494 5.7744C304.506 5.35556 305.591 5.13999 306.686 5.13999C307.781 5.13999 308.865 5.35556 309.877 5.7744C310.889 6.19323 311.808 6.80713 312.582 7.58104C313.357 8.35495 313.971 9.2737 314.39 10.2849C314.809 11.296 315.025 12.3798 315.025 13.4742C315.025 14.5687 314.809 15.6525 314.39 16.6636C313.971 17.6748 313.357 18.5936 312.582 19.3675V19.3675C311.898 20.043 311.355 20.847 310.983 21.7333C310.611 22.6197 310.418 23.5707 310.415 24.5318V158.222C310.434 160.161 311.212 162.015 312.582 163.387L316.75 167.551C317.53 168.326 318.148 169.248 318.57 170.263C318.992 171.278 319.209 172.366 319.208 173.466V296.744C319.209 297.843 318.992 298.932 318.57 299.947C318.148 300.962 317.53 301.883 316.75 302.658L312.582 306.823C311.208 308.192 310.43 310.048 310.415 311.987V445.678C310.43 447.617 311.208 449.472 312.582 450.842C313.359 451.616 313.976 452.535 314.398 453.547C314.82 454.56 315.038 455.645 315.039 456.741C315.041 457.838 314.827 458.924 314.409 459.937C313.991 460.951 313.377 461.873 312.603 462.649C311.829 463.426 310.909 464.043 309.896 464.464C308.883 464.885 307.798 465.103 306.7 465.105C305.603 465.107 304.517 464.893 303.502 464.475C302.488 464.057 301.566 463.444 300.789 462.67C299.415 461.308 297.557 460.545 295.622 460.546H232.697C231.744 460.544 230.801 460.731 229.921 461.095C229.042 461.46 228.243 461.995 227.571 462.67L223.404 466.835C221.812 468.283 219.721 469.059 217.57 469.001V469.001ZM24.5029 459.297H87.2612C88.3609 459.296 89.4499 459.512 90.4655 459.934C91.4811 460.356 92.4032 460.974 93.1785 461.754L97.3457 465.919C98.0237 466.597 98.8295 467.133 99.7165 467.498C100.603 467.863 101.554 468.048 102.513 468.043H217.653C218.606 468.047 219.55 467.861 220.43 467.497C221.31 467.132 222.109 466.595 222.779 465.919L226.946 461.754C228.502 460.19 230.615 459.306 232.822 459.297H295.58C296.68 459.296 297.769 459.512 298.785 459.934C299.8 460.356 300.722 460.974 301.498 461.754V461.754C302.101 462.625 302.888 463.355 303.803 463.892C304.717 464.428 305.738 464.759 306.794 464.86C307.85 464.962 308.915 464.832 309.915 464.48C310.916 464.128 311.827 463.563 312.587 462.822C313.346 462.082 313.934 461.185 314.311 460.194C314.688 459.203 314.843 458.142 314.768 457.085C314.692 456.027 314.386 454.999 313.872 454.072C313.358 453.145 312.648 452.341 311.791 451.717V451.717C311.011 450.942 310.392 450.02 309.97 449.005C309.548 447.99 309.331 446.902 309.332 445.803V311.821C309.341 309.615 310.225 307.503 311.791 305.948L315.958 301.783C316.642 301.108 317.185 300.304 317.557 299.418C317.929 298.531 318.122 297.58 318.125 296.619V173.382C318.127 172.42 317.936 171.468 317.564 170.581C317.192 169.694 316.646 168.891 315.958 168.218L311.791 164.053C310.225 162.498 309.341 160.386 309.332 158.181V24.5318C309.331 23.4327 309.548 22.3442 309.97 21.3292C310.392 20.3142 311.011 19.3927 311.791 18.6178V18.6178C313.161 17.2481 313.931 15.3904 313.931 13.4534C313.931 11.5164 313.161 9.65873 311.791 8.28906C310.42 6.91938 308.561 6.1499 306.623 6.1499C304.685 6.1499 302.826 6.91938 301.456 8.28906V8.28906C300.681 9.06858 299.758 9.68702 298.743 10.1088C297.727 10.5305 296.638 10.7472 295.538 10.7463H232.697C230.49 10.737 228.377 9.85331 226.821 8.28906L222.654 4.12424C221.283 2.75112 219.427 1.97301 217.487 1.95854H102.43C101.468 1.9612 100.516 2.15391 99.6296 2.52559C98.7428 2.89728 97.9383 3.44058 97.2624 4.12424L93.0952 8.28906C92.3199 9.06858 91.3978 9.68702 90.3822 10.1088C89.3666 10.5305 88.2775 10.7472 87.1777 10.7463H24.5029C23.4032 10.7472 22.314 10.5305 21.2984 10.1088C20.2828 9.68702 19.3608 9.06858 18.5854 8.28906V8.28906C17.2205 6.90834 15.3627 6.12607 13.4207 6.11435C11.4787 6.10264 9.6115 6.86243 8.22998 8.22658C6.84847 9.59073 6.06565 11.4475 6.05392 13.3884C6.0422 15.3293 6.80248 17.1954 8.16742 18.5761V18.5761C8.93986 19.3545 9.55101 20.2775 9.96577 21.2924C10.3805 22.3072 10.5908 23.3939 10.5845 24.4902V158.181C10.5862 160.38 9.71729 162.491 8.16742 164.053L4.0002 168.218C2.63774 169.592 1.87378 171.448 1.87488 173.382V296.661C1.88272 298.593 2.64534 300.446 4.0002 301.825L8.16742 305.99C9.71729 307.552 10.5862 309.663 10.5845 311.862V445.553C10.5908 446.649 10.3805 447.736 9.96577 448.751C9.55101 449.765 8.93986 450.688 8.16742 451.467V451.467C7.12868 452.484 6.41795 453.788 6.12641 455.212C5.83487 456.636 5.97586 458.114 6.53133 459.457C7.0868 460.8 8.03137 461.947 9.24368 462.749C10.456 463.552 11.8806 463.974 13.3347 463.961V463.961C14.2938 463.966 15.2444 463.781 16.1314 463.417C17.0184 463.052 17.8242 462.515 18.5021 461.837V461.837C19.2803 461.033 20.2127 460.393 21.2437 459.956C22.2748 459.52 23.3832 459.296 24.5029 459.297V459.297ZM293.288 451.675H26.5866C24.3761 451.675 22.2562 450.797 20.6932 449.235C19.1302 447.673 18.2521 445.555 18.2521 443.345V26.9058C18.2521 24.6966 19.1302 22.5779 20.6932 21.0158C22.2562 19.4537 24.3761 18.5761 26.5866 18.5761H293.288C295.499 18.5761 297.618 19.4537 299.181 21.0158C300.744 22.5779 301.623 24.6966 301.623 26.9058V443.387C301.623 445.596 300.744 447.715 299.181 449.277C297.618 450.839 295.499 451.717 293.288 451.717V451.675ZM26.5866 19.4091C25.6217 19.4252 24.6695 19.6326 23.7854 20.0192C22.9013 20.4058 22.1027 20.9639 21.436 21.6612C20.7693 22.3585 20.2477 23.1812 19.9014 24.0814C19.5552 24.9817 19.3912 25.9417 19.4189 26.9058V443.387C19.4134 444.348 19.5979 445.3 19.962 446.189C20.326 447.078 20.8623 447.886 21.5401 448.568C22.2178 449.249 23.0236 449.789 23.9111 450.158C24.7986 450.527 25.7504 450.717 26.7116 450.717H293.413C295.322 450.663 297.134 449.867 298.465 448.498C299.796 447.129 300.54 445.296 300.539 443.387V26.9058C300.539 24.9689 299.772 23.1108 298.406 21.7373C297.039 20.3638 295.184 19.5867 293.246 19.5757L26.5866 19.4091Z" fill="url(#paint30_linear_8_1048)"/>
<defs>
<linearGradient id="paint0_linear_8_1048" x1="150.5" y1="30" x2="150.5" y2="453" gradientUnits="userSpaceOnUse">
<stop offset="0.154654" stop-color="#64BDFD"/>
<stop offset="0.684689" stop-color="#382E3E"/>
</linearGradient>
<linearGradient id="paint1_linear_8_1048" x1="150.5" y1="30" x2="150.5" y2="453" gradientUnits="userSpaceOnUse">
<stop offset="0.154654" stop-color="#64BDFD"/>
<stop offset="0.684689" stop-color="#382E3E"/>
</linearGradient>
<linearGradient id="paint2_linear_8_1048" x1="150.5" y1="30" x2="150.5" y2="453" gradientUnits="userSpaceOnUse">
<stop offset="0.154654" stop-color="#64BDFD"/>
<stop offset="0.684689" stop-color="#382E3E"/>
</linearGradient>
<linearGradient id="paint3_linear_8_1048" x1="150.5" y1="30" x2="150.5" y2="453" gradientUnits="userSpaceOnUse">
<stop offset="0.154654" stop-color="#64BDFD"/>
<stop offset="0.684689" stop-color="#382E3E"/>
</linearGradient>
<linearGradient id="paint4_linear_8_1048" x1="150.5" y1="30" x2="150.5" y2="453" gradientUnits="userSpaceOnUse">
<stop offset="0.154654" stop-color="#64BDFD"/>
<stop offset="0.684689" stop-color="#382E3E"/>
</linearGradient>
<linearGradient id="paint5_linear_8_1048" x1="150.5" y1="30" x2="150.5" y2="453" gradientUnits="userSpaceOnUse">
<stop offset="0.154654" stop-color="#64BDFD"/>
<stop offset="0.684689" stop-color="#382E3E"/>
</linearGradient>
<linearGradient id="paint6_linear_8_1048" x1="150.5" y1="30" x2="150.5" y2="453" gradientUnits="userSpaceOnUse">
<stop offset="0.154654" stop-color="#64BDFD"/>
<stop offset="0.684689" stop-color="#382E3E"/>
</linearGradient>
<linearGradient id="paint7_linear_8_1048" x1="150.5" y1="30" x2="150.5" y2="453" gradientUnits="userSpaceOnUse">
<stop offset="0.154654" stop-color="#64BDFD"/>
<stop offset="0.684689" stop-color="#382E3E"/>
</linearGradient>
<linearGradient id="paint8_linear_8_1048" x1="150.5" y1="30" x2="150.5" y2="453" gradientUnits="userSpaceOnUse">
<stop offset="0.154654" stop-color="#64BDFD"/>
<stop offset="0.684689" stop-color="#382E3E"/>
</linearGradient>
<linearGradient id="paint9_linear_8_1048" x1="150.5" y1="30" x2="150.5" y2="453" gradientUnits="userSpaceOnUse">
<stop offset="0.154654" stop-color="#64BDFD"/>
<stop offset="0.684689" stop-color="#382E3E"/>
</linearGradient>
<linearGradient id="paint10_linear_8_1048" x1="150.5" y1="30" x2="150.5" y2="453" gradientUnits="userSpaceOnUse">
<stop offset="0.154654" stop-color="#64BDFD"/>
<stop offset="0.684689" stop-color="#382E3E"/>
</linearGradient>
<linearGradient id="paint11_linear_8_1048" x1="150.5" y1="30" x2="150.5" y2="453" gradientUnits="userSpaceOnUse">
<stop offset="0.154654" stop-color="#64BDFD"/>
<stop offset="0.684689" stop-color="#382E3E"/>
</linearGradient>
<linearGradient id="paint12_linear_8_1048" x1="150.5" y1="30" x2="150.5" y2="453" gradientUnits="userSpaceOnUse">
<stop offset="0.154654" stop-color="#64BDFD"/>
<stop offset="0.684689" stop-color="#382E3E"/>
</linearGradient>
<linearGradient id="paint13_linear_8_1048" x1="150.5" y1="30" x2="150.5" y2="453" gradientUnits="userSpaceOnUse">
<stop offset="0.154654" stop-color="#64BDFD"/>
<stop offset="0.684689" stop-color="#382E3E"/>
</linearGradient>
<linearGradient id="paint14_linear_8_1048" x1="150.5" y1="30" x2="150.5" y2="453" gradientUnits="userSpaceOnUse">
<stop offset="0.154654" stop-color="#64BDFD"/>
<stop offset="0.684689" stop-color="#382E3E"/>
</linearGradient>
<linearGradient id="paint15_linear_8_1048" x1="150.5" y1="30" x2="150.5" y2="453" gradientUnits="userSpaceOnUse">
<stop offset="0.154654" stop-color="#64BDFD"/>
<stop offset="0.684689" stop-color="#382E3E"/>
</linearGradient>
<linearGradient id="paint16_linear_8_1048" x1="150.5" y1="30" x2="150.5" y2="453" gradientUnits="userSpaceOnUse">
<stop offset="0.154654" stop-color="#64BDFD"/>
<stop offset="0.684689" stop-color="#382E3E"/>
</linearGradient>
<linearGradient id="paint17_linear_8_1048" x1="150.5" y1="30" x2="150.5" y2="453" gradientUnits="userSpaceOnUse">
<stop offset="0.154654" stop-color="#64BDFD"/>
<stop offset="0.684689" stop-color="#382E3E"/>
</linearGradient>
<linearGradient id="paint18_linear_8_1048" x1="150.5" y1="30" x2="150.5" y2="453" gradientUnits="userSpaceOnUse">
<stop offset="0.154654" stop-color="#64BDFD"/>
<stop offset="0.684689" stop-color="#382E3E"/>
</linearGradient>
<linearGradient id="paint19_linear_8_1048" x1="150.5" y1="30" x2="150.5" y2="453" gradientUnits="userSpaceOnUse">
<stop offset="0.154654" stop-color="#64BDFD"/>
<stop offset="0.684689" stop-color="#382E3E"/>
</linearGradient>
<linearGradient id="paint20_linear_8_1048" x1="150.5" y1="30" x2="150.5" y2="453" gradientUnits="userSpaceOnUse">
<stop offset="0.154654" stop-color="#64BDFD"/>
<stop offset="0.684689" stop-color="#382E3E"/>
</linearGradient>
<linearGradient id="paint21_linear_8_1048" x1="150.5" y1="30" x2="150.5" y2="453" gradientUnits="userSpaceOnUse">
<stop offset="0.154654" stop-color="#64BDFD"/>
<stop offset="0.684689" stop-color="#382E3E"/>
</linearGradient>
<linearGradient id="paint22_linear_8_1048" x1="150.5" y1="30" x2="150.5" y2="453" gradientUnits="userSpaceOnUse">
<stop offset="0.154654" stop-color="#64BDFD"/>
<stop offset="0.684689" stop-color="#382E3E"/>
</linearGradient>
<linearGradient id="paint23_linear_8_1048" x1="150.5" y1="30" x2="150.5" y2="453" gradientUnits="userSpaceOnUse">
<stop offset="0.154654" stop-color="#64BDFD"/>
<stop offset="0.684689" stop-color="#382E3E"/>
</linearGradient>
<linearGradient id="paint24_linear_8_1048" x1="150.5" y1="30" x2="150.5" y2="453" gradientUnits="userSpaceOnUse">
<stop offset="0.154654" stop-color="#64BDFD"/>
<stop offset="0.684689" stop-color="#382E3E"/>
</linearGradient>
<linearGradient id="paint25_linear_8_1048" x1="150.5" y1="30" x2="150.5" y2="453" gradientUnits="userSpaceOnUse">
<stop offset="0.154654" stop-color="#64BDFD"/>
<stop offset="0.684689" stop-color="#382E3E"/>
</linearGradient>
<linearGradient id="paint26_linear_8_1048" x1="150.5" y1="30" x2="150.5" y2="453" gradientUnits="userSpaceOnUse">
<stop offset="0.154654" stop-color="#64BDFD"/>
<stop offset="0.684689" stop-color="#382E3E"/>
</linearGradient>
<linearGradient id="paint27_linear_8_1048" x1="150.5" y1="30" x2="150.5" y2="453" gradientUnits="userSpaceOnUse">
<stop offset="0.154654" stop-color="#64BDFD"/>
<stop offset="0.684689" stop-color="#382E3E"/>
</linearGradient>
<linearGradient id="paint28_linear_8_1048" x1="150.5" y1="30" x2="150.5" y2="453" gradientUnits="userSpaceOnUse">
<stop offset="0.154654" stop-color="#64BDFD"/>
<stop offset="0.684689" stop-color="#382E3E"/>
</linearGradient>
<linearGradient id="paint29_linear_8_1048" x1="150.5" y1="30" x2="150.5" y2="453" gradientUnits="userSpaceOnUse">
<stop offset="0.154654" stop-color="#64BDFD"/>
<stop offset="0.684689" stop-color="#382E3E"/>
</linearGradient>
<linearGradient id="paint30_linear_8_1048" x1="0.916504" y1="234.981" x2="319.208" y2="234.981" gradientUnits="userSpaceOnUse">
<stop stop-color="#4FACFE"/>
<stop offset="1" stop-color="#00F2FE"/>
</linearGradient>
</defs>
</svg>
