<svg width="15" height="11" viewBox="0 0 15 11" fill="none" xmlns="http://www.w3.org/2000/svg">
<path d="M14.2115 5.01911C12.9246 2.08778 10.3507 0.0858939 7.4432 0.0858939C4.51187 0.0858939 1.93801 2.08778 0.651086 5.01911C0.603422 5.13827 0.57959 5.3051 0.57959 5.42426C0.57959 5.54342 0.603422 5.73407 0.651086 5.85323C1.93801 8.78457 4.51187 10.7626 7.4432 10.7626C10.3507 10.7626 12.9246 8.78457 14.2115 5.85323C14.2591 5.73407 14.3068 5.54342 14.3068 5.42426C14.3068 5.3051 14.2591 5.13827 14.2115 5.01911ZM7.4432 9.61869C5.06 9.61869 2.86746 8.02195 1.72353 5.44809C2.89129 2.8504 5.06 1.22983 7.4432 1.22983C9.80257 1.22983 11.9951 2.8504 13.139 5.42426C11.9713 8.02195 9.80257 9.61869 7.4432 9.61869ZM7.4432 2.37376C5.75113 2.37376 4.39271 3.75602 4.39271 5.42426C4.39271 7.11633 5.75113 8.47475 7.4432 8.47475C9.11144 8.47475 10.4937 7.11633 10.4937 5.44809C10.4937 3.75602 9.11144 2.37376 7.4432 2.37376ZM7.4432 7.33082C6.37076 7.33082 5.53664 6.4967 5.53664 5.42426C5.53664 5.42426 5.53664 5.40043 5.53664 5.37659C5.6558 5.42426 5.77496 5.42426 5.91795 5.42426C6.75207 5.42426 7.4432 4.75696 7.4432 3.89901C7.4432 3.77985 7.41937 3.66069 7.37171 3.54153C7.39554 3.54153 7.41937 3.5177 7.4432 3.5177C8.49181 3.5177 9.34976 4.37565 9.34976 5.44809C9.34976 6.4967 8.49181 7.33082 7.4432 7.33082Z" fill="#C4C4C4"/>
</svg>
