<svg width="14" height="19" viewBox="0 0 14 19" fill="none" xmlns="http://www.w3.org/2000/svg">
<path d="M4.02324 0.333089C3.96963 0.334507 3.91737 0.352676 3.87205 0.385649C3.82674 0.418623 3.79008 0.465157 3.766 0.520266C3.74193 0.575375 3.73134 0.63698 3.73539 0.698478C3.73943 0.759977 3.75795 0.819052 3.78895 0.86937L4.66262 2.32158C3.82377 3.06095 3.23623 4.15934 3.07917 5.41979H11.2573C11.1002 4.15934 10.5127 3.06095 9.67381 2.32158L10.5475 0.86937C10.5789 0.818316 10.5975 0.758271 10.6012 0.695851C10.6048 0.63343 10.5934 0.571056 10.5683 0.515601C10.5431 0.460146 10.5051 0.413761 10.4584 0.381558C10.4118 0.349355 10.3583 0.332583 10.304 0.333089C10.256 0.333597 10.2089 0.347519 10.1667 0.373652C10.1244 0.399785 10.0884 0.437344 10.0616 0.483089L9.181 1.94857C8.58536 1.56467 7.90023 1.34193 7.16821 1.34193C6.4362 1.34193 5.75106 1.56467 5.15543 1.94857L4.27484 0.483089C4.24718 0.435841 4.20965 0.397344 4.16569 0.371134C4.12173 0.344924 4.07274 0.331842 4.02324 0.333089ZM5.39549 2.70122C5.72167 2.70122 5.98639 3.0057 5.98639 3.38086C5.98639 3.75603 5.72167 4.06051 5.39549 4.06051C5.0693 4.06051 4.80458 3.75603 4.80458 3.38086C4.80458 3.0057 5.0693 2.70122 5.39549 2.70122ZM8.94094 2.70122C9.26712 2.70122 9.53185 3.0057 9.53185 3.38086C9.53185 3.75603 9.26712 4.06051 8.94094 4.06051C8.61476 4.06051 8.35003 3.75603 8.35003 3.38086C8.35003 3.0057 8.61476 2.70122 8.94094 2.70122ZM1.25912 6.77908C0.93294 6.77908 0.668213 7.08356 0.668213 7.45872V12.8959C0.668213 13.271 0.93294 13.5755 1.25912 13.5755C1.5853 13.5755 1.85003 13.271 1.85003 12.8959V7.45872C1.85003 7.08356 1.5853 6.77908 1.25912 6.77908ZM3.03185 6.77908V13.5755C3.03185 14.3265 3.56071 14.9348 4.21367 14.9348V17.3135C4.21367 17.8763 4.61076 18.333 5.10003 18.333C5.5893 18.333 5.98639 17.8763 5.98639 17.3135V14.9348H8.35003V17.3135C8.35003 17.8763 8.74712 18.333 9.23639 18.333C9.72567 18.333 10.1228 17.8763 10.1228 17.3135V14.9348C10.7757 14.9348 11.3046 14.3265 11.3046 13.5755V6.77908H3.03185ZM13.0773 6.77908C12.7511 6.77908 12.4864 7.08356 12.4864 7.45872V12.8959C12.4864 13.271 12.7511 13.5755 13.0773 13.5755C13.4035 13.5755 13.6682 13.271 13.6682 12.8959V7.45872C13.6682 7.08356 13.4035 6.77908 13.0773 6.77908Z" fill="#93D1E4"/>
</svg>
