<svg width="14" height="17" viewBox="0 0 14 17" fill="none" xmlns="http://www.w3.org/2000/svg">
<path d="M11.1797 9.04028C11.1797 7.7395 11.7773 6.79028 12.9375 6.052C12.2695 5.10278 11.2852 4.6106 9.98438 4.50513C8.71875 4.39966 7.34766 5.20825 6.85547 5.20825C6.32812 5.20825 5.13281 4.54028 4.18359 4.54028C2.21484 4.57544 0.140625 6.08716 0.140625 9.21606C0.140625 10.1301 0.28125 11.0793 0.632812 12.0637C1.08984 13.3645 2.70703 16.5286 4.39453 16.4583C5.27344 16.4583 5.90625 15.8254 7.06641 15.8254C8.19141 15.8254 8.75391 16.4583 9.73828 16.4583C11.4609 16.4583 12.9375 13.5754 13.3594 12.2747C11.0742 11.1848 11.1797 9.1106 11.1797 9.04028ZM9.21094 3.27466C10.1602 2.14966 10.0547 1.09497 10.0547 0.708252C9.21094 0.778564 8.22656 1.30591 7.66406 1.93872C7.03125 2.64185 6.67969 3.52075 6.75 4.46997C7.66406 4.54028 8.50781 4.08325 9.21094 3.27466Z" fill="#93D1E4"/>
</svg>
