<svg width="25" height="22" viewBox="0 0 25 22" fill="none" xmlns="http://www.w3.org/2000/svg">
<path d="M0 2.08398C0 1.1543 0.765625 0.333984 1.75 0.333984H22.75C23.6797 0.333984 24.5 1.1543 24.5 2.08398C24.5 3.06836 23.6797 3.83398 22.75 3.83398H1.75C0.765625 3.83398 0 3.06836 0 2.08398ZM0 10.834C0 9.9043 0.765625 9.08398 1.75 9.08398H22.75C23.6797 9.08398 24.5 9.9043 24.5 10.834C24.5 11.8184 23.6797 12.584 22.75 12.584H1.75C0.765625 12.584 0 11.8184 0 10.834ZM22.75 21.334H1.75C0.765625 21.334 0 20.5684 0 19.584C0 18.6543 0.765625 17.834 1.75 17.834H22.75C23.6797 17.834 24.5 18.6543 24.5 19.584C24.5 20.5684 23.6797 21.334 22.75 21.334Z" fill="url(#paint0_linear_120_6958)"/>
<defs>
<linearGradient id="paint0_linear_120_6958" x1="0" y1="10.334" x2="25" y2="10.334" gradientUnits="userSpaceOnUse">
<stop stop-color="#A3C4DB"/>
<stop offset="1" stop-color="#5AACD3"/>
</linearGradient>
</defs>
</svg>
